<svg width="34" height="34" viewBox="0 0 34 34" fill="none" xmlns="http://www.w3.org/2000/svg">
<g id="Frame" clip-path="url(#clip0_106_1640)">
<path id="Vector" d="M2.33203 9.66659C2.33203 7.72166 3.10465 5.8564 4.47991 4.48114C5.85518 3.10587 7.72044 2.33325 9.66536 2.33325H24.332C26.277 2.33325 28.1422 3.10587 29.5175 4.48114C30.8927 5.8564 31.6654 7.72166 31.6654 9.66659V24.3333C31.6654 26.2782 30.8927 28.1434 29.5175 29.5187C28.1422 30.894 26.277 31.6666 24.332 31.6666H9.66536C7.72044 31.6666 5.85518 30.894 4.47991 29.5187C3.10465 28.1434 2.33203 26.2782 2.33203 24.3333V9.66659Z" stroke="#111827" stroke-width="2" stroke-linecap="round" stroke-linejoin="round"/>
<path id="Vector_2" d="M11.5 17C11.5 18.4587 12.0795 19.8576 13.1109 20.8891C14.1424 21.9205 15.5413 22.5 17 22.5C18.4587 22.5 19.8576 21.9205 20.8891 20.8891C21.9205 19.8576 22.5 18.4587 22.5 17C22.5 15.5413 21.9205 14.1424 20.8891 13.1109C19.8576 12.0795 18.4587 11.5 17 11.5C15.5413 11.5 14.1424 12.0795 13.1109 13.1109C12.0795 14.1424 11.5 15.5413 11.5 17Z" stroke="#111827" stroke-width="2" stroke-linecap="round" stroke-linejoin="round"/>
<path id="Vector_3" d="M25.25 8.75V8.76833" stroke="#111827" stroke-width="2.5" stroke-linecap="round" stroke-linejoin="round"/>
</g>
<defs>
<clipPath id="clip0_106_1640">
<rect width="34" height="34" fill="white"/>
</clipPath>
</defs>
</svg>
