<svg width="88" height="26" viewBox="0 0 88 26" fill="none" xmlns="http://www.w3.org/2000/svg">
    <path
        d="M0.792 25V24.64L1.44 24.388C1.92 24.196 2.244 23.956 2.412 23.668C2.604 23.38 2.7 22.996 2.7 22.516V3.724C2.7 3.22 2.604 2.824 2.412 2.536C2.244 2.248 1.92 2.02 1.44 1.852L0.792 1.6V1.24H11.124C14.052 1.24 16.164 1.78 17.46 2.86C18.756 3.916 19.404 5.26 19.404 6.892C19.404 8.116 18.924 9.232 17.964 10.24C17.028 11.224 15.408 11.92 13.104 12.328C15.744 12.616 17.676 13.312 18.9 14.416C20.124 15.496 20.736 16.816 20.736 18.376C20.736 19.144 20.568 19.924 20.232 20.716C19.896 21.484 19.32 22.192 18.504 22.84C17.712 23.488 16.62 24.016 15.228 24.424C13.836 24.808 12.072 25 9.936 25H0.792ZM8.028 12.292H9.576C11.184 12.292 12.336 11.92 13.032 11.176C13.752 10.432 14.112 9.136 14.112 7.288C14.112 5.368 13.788 4 13.14 3.184C12.492 2.368 11.436 1.96 9.972 1.96H8.028V12.292ZM8.028 24.28H9.828C11.628 24.28 12.96 23.8 13.824 22.84C14.712 21.88 15.156 20.38 15.156 18.34C15.156 16.42 14.736 15.052 13.896 14.236C13.056 13.42 11.676 13.012 9.756 13.012H8.028V24.28ZM21.71 25V24.64L22.466 24.352C22.97 24.16 23.282 23.932 23.402 23.668C23.546 23.38 23.618 22.996 23.618 22.516V3.724C23.618 3.244 23.546 2.86 23.402 2.572C23.258 2.284 22.946 2.056 22.466 1.888L21.71 1.6V1.24H30.89V1.6L30.242 1.888C29.786 2.056 29.474 2.296 29.306 2.608C29.138 2.896 29.054 3.28 29.054 3.76V24.28H34.598C35.486 24.28 36.134 24.064 36.542 23.632C36.974 23.2 37.382 22.576 37.766 21.76L39.17 18.736H39.53L39.206 25H21.71ZM51.9272 25.648C50.4632 25.648 49.0472 25.384 47.6792 24.856C46.3352 24.328 45.1232 23.548 44.0432 22.516C42.9872 21.46 42.1472 20.152 41.5232 18.592C40.8992 17.032 40.5872 15.208 40.5872 13.12C40.5872 11.056 40.8992 9.244 41.5232 7.684C42.1472 6.124 42.9992 4.828 44.0792 3.796C45.1592 2.74 46.3712 1.948 47.7152 1.42C49.0832 0.867999 50.4872 0.591999 51.9272 0.591999C53.3912 0.591999 54.7952 0.855999 56.1392 1.384C57.5072 1.888 58.7192 2.668 59.7752 3.724C60.8552 4.756 61.7072 6.064 62.3312 7.648C62.9552 9.208 63.2672 11.032 63.2672 13.12C63.2672 15.16 62.9552 16.972 62.3312 18.556C61.7072 20.116 60.8552 21.424 59.7752 22.48C58.7192 23.512 57.5072 24.304 56.1392 24.856C54.7952 25.384 53.3912 25.648 51.9272 25.648ZM51.9272 24.892C53.2472 24.892 54.3152 24.544 55.1312 23.848C55.9472 23.128 56.5352 21.916 56.8952 20.212C57.2792 18.484 57.4712 16.12 57.4712 13.12C57.4712 10.096 57.2792 7.732 56.8952 6.028C56.5352 4.3 55.9472 3.088 55.1312 2.392C54.3152 1.672 53.2472 1.312 51.9272 1.312C50.6312 1.312 49.5752 1.672 48.7592 2.392C47.9432 3.088 47.3432 4.3 46.9592 6.028C46.5992 7.732 46.4192 10.096 46.4192 13.12C46.4192 16.12 46.5992 18.484 46.9592 20.212C47.3432 21.916 47.9432 23.128 48.7592 23.848C49.5752 24.544 50.6312 24.892 51.9272 24.892ZM77.6509 25.648C75.2029 25.648 73.0429 25.144 71.1709 24.136C69.3229 23.104 67.8709 21.652 66.8149 19.78C65.7829 17.884 65.2669 15.652 65.2669 13.084C65.2669 10.588 65.7829 8.404 66.8149 6.532C67.8469 4.66 69.3349 3.208 71.2789 2.176C73.2469 1.12 75.6229 0.591999 78.4069 0.591999C79.6789 0.591999 80.8549 0.735999 81.9349 1.024C83.0389 1.312 84.0829 1.732 85.0669 2.284L85.2109 7.324H84.8509L82.8349 3.58C82.5229 2.98 82.2349 2.548 81.9709 2.284C81.7069 2.02 81.3709 1.816 80.9629 1.672C80.5789 1.552 80.2189 1.468 79.8829 1.42C79.5709 1.348 79.1509 1.312 78.6229 1.312C77.1349 1.312 75.8149 1.708 74.6629 2.5C73.5349 3.292 72.6589 4.552 72.0349 6.28C71.4109 8.008 71.0989 10.276 71.0989 13.084C71.0989 15.868 71.3869 18.136 71.9629 19.888C72.5629 21.64 73.4029 22.924 74.4829 23.74C75.5629 24.532 76.8109 24.928 78.2269 24.928C78.4429 24.928 78.6469 24.916 78.8389 24.892C79.0549 24.844 79.2589 24.796 79.4509 24.748C79.9069 24.676 80.2069 24.484 80.3509 24.172C80.4949 23.86 80.5669 23.488 80.5669 23.056V15.928C80.5669 14.992 80.0869 14.416 79.1269 14.2L77.4709 13.768V13.408H87.6229V13.768L87.1189 13.912C86.2069 14.2 85.7509 14.8 85.7509 15.712V23.524C84.5029 24.22 83.2309 24.748 81.9349 25.108C80.6629 25.468 79.2349 25.648 77.6509 25.648Z"
        fill="#fafbff" />
</svg>
    