<svg width="89" height="36" viewBox="0 0 89 36" fill="none" xmlns="http://www.w3.org/2000/svg">
<path d="M18.2008 13.3V13.11L18.5808 12.977C18.8341 12.901 18.9988 12.787 19.0748 12.635C19.1635 12.483 19.2078 12.2803 19.2078 12.027V2.071C19.2078 1.81767 19.1635 1.615 19.0748 1.463C18.9861 1.311 18.8151 1.19067 18.5618 1.102L18.2008 0.95V0.76H22.8178C24.7051 0.76 26.0668 1.10833 26.9028 1.805C27.7515 2.489 28.1758 3.39467 28.1758 4.522C28.1758 5.244 27.9985 5.909 27.6438 6.517C27.3018 7.11233 26.7318 7.58733 25.9338 7.942C25.1358 8.29667 24.0591 8.474 22.7038 8.474H22.0578V11.97C22.0578 12.464 22.3048 12.787 22.7988 12.939L23.3688 13.11V13.3H18.2008ZM22.0578 8.094H22.7798C23.4005 8.094 23.9071 7.99267 24.2998 7.79C24.6925 7.58733 24.9838 7.23267 25.1738 6.726C25.3638 6.21933 25.4588 5.51633 25.4588 4.617C25.4588 3.705 25.3511 2.99567 25.1358 2.489C24.9331 1.98233 24.6291 1.634 24.2238 1.444C23.8185 1.24133 23.3118 1.14 22.7038 1.14H22.0578V8.094Z" fill="#111827"/>
<path d="M30.768 2.888C30.3373 2.888 29.97 2.755 29.666 2.489C29.3746 2.21033 29.229 1.862 29.229 1.444C29.229 1.01333 29.3746 0.665 29.666 0.399C29.97 0.133 30.3373 0 30.768 0C31.1986 0 31.5596 0.133 31.851 0.399C32.1423 0.665 32.288 1.01333 32.288 1.444C32.288 1.862 32.1423 2.21033 31.851 2.489C31.5596 2.755 31.1986 2.888 30.768 2.888ZM28.526 13.3V13.11L28.792 13.034C29.0453 12.958 29.2163 12.844 29.305 12.692C29.4063 12.54 29.457 12.3373 29.457 12.084V6.137C29.457 5.871 29.4063 5.67467 29.305 5.548C29.2163 5.40867 29.0453 5.31367 28.792 5.263L28.526 5.206V5.016L32.003 3.895L32.193 4.085L32.136 6.783V12.103C32.136 12.3563 32.1803 12.559 32.269 12.711C32.3703 12.863 32.5413 12.977 32.782 13.053L32.972 13.11V13.3H28.526Z" fill="#111827"/>
<path d="M38.1642 3.876C38.9875 3.876 39.6905 4.047 40.2732 4.389C40.8558 4.71833 41.2992 5.17433 41.6032 5.757C41.9198 6.327 42.0782 6.97933 42.0782 7.714C42.0782 7.85333 42.0718 7.999 42.0592 8.151C42.0465 8.29033 42.0212 8.417 41.9832 8.531H36.3212C36.3338 9.899 36.5745 10.887 37.0432 11.495C37.5245 12.0903 38.2338 12.388 39.1712 12.388C39.8045 12.388 40.3175 12.2867 40.7102 12.084C41.1028 11.8813 41.4702 11.5837 41.8122 11.191L42.0022 11.362C41.6095 12.0587 41.0838 12.6033 40.4252 12.996C39.7792 13.3887 39.0002 13.585 38.0882 13.585C37.1888 13.585 36.3908 13.395 35.6942 13.015C34.9975 12.6223 34.4528 12.065 34.0602 11.343C33.6675 10.621 33.4712 9.75967 33.4712 8.759C33.4712 7.72033 33.6992 6.84 34.1552 6.118C34.6112 5.38333 35.1938 4.826 35.9032 4.446C36.6252 4.066 37.3788 3.876 38.1642 3.876ZM38.1072 4.256C37.7398 4.256 37.4232 4.37 37.1572 4.598C36.9038 4.81333 36.7012 5.206 36.5492 5.776C36.4098 6.33333 36.3338 7.125 36.3212 8.151H39.5702C39.6968 6.77033 39.6462 5.776 39.4182 5.168C39.1902 4.56 38.7532 4.256 38.1072 4.256Z" fill="#111827"/>
<path d="M42.6071 13.3V13.11L42.8921 13.034C43.1454 12.958 43.3164 12.844 43.4051 12.692C43.5064 12.54 43.5571 12.3437 43.5571 12.103V6.156C43.5571 5.87733 43.5064 5.67467 43.4051 5.548C43.3164 5.40867 43.1454 5.31367 42.8921 5.263L42.6071 5.187V4.997L45.875 3.895L46.0651 4.085L46.236 5.719V5.871C46.4134 5.51633 46.6414 5.19333 46.9201 4.902C47.2114 4.598 47.5281 4.351 47.8701 4.161C48.2247 3.971 48.5731 3.876 48.9151 3.876C49.3964 3.876 49.7637 4.009 50.0171 4.275C50.2704 4.541 50.3971 4.87667 50.3971 5.282C50.3971 5.71267 50.2704 6.04833 50.0171 6.289C49.7764 6.517 49.4851 6.631 49.1431 6.631C48.6111 6.631 48.1424 6.365 47.7371 5.833L47.6991 5.795C47.5724 5.61767 47.4267 5.52267 47.2621 5.51C47.0974 5.48467 46.9454 5.56067 46.806 5.738C46.6794 5.852 46.5717 5.99133 46.4831 6.156C46.4071 6.308 46.3311 6.48533 46.2551 6.688V11.989C46.2551 12.4957 46.4767 12.8123 46.9201 12.939L47.528 13.11V13.3H42.6071Z" fill="#111827"/>
<path d="M50.5758 13.3V13.11L50.8608 13.034C51.1141 12.958 51.2851 12.844 51.3738 12.692C51.4751 12.54 51.5258 12.3437 51.5258 12.103V6.156C51.5258 5.87733 51.4751 5.67467 51.3738 5.548C51.2851 5.40867 51.1141 5.31367 50.8608 5.263L50.5758 5.187V4.997L53.8438 3.895L54.0338 4.085L54.2048 5.719V5.871C54.3821 5.51633 54.6101 5.19333 54.8888 4.902C55.1801 4.598 55.4968 4.351 55.8388 4.161C56.1934 3.971 56.5418 3.876 56.8838 3.876C57.3651 3.876 57.7324 4.009 57.9858 4.275C58.2391 4.541 58.3658 4.87667 58.3658 5.282C58.3658 5.71267 58.2391 6.04833 57.9858 6.289C57.7451 6.517 57.4538 6.631 57.1118 6.631C56.5798 6.631 56.1111 6.365 55.7058 5.833L55.6678 5.795C55.5411 5.61767 55.3954 5.52267 55.2308 5.51C55.0661 5.48467 54.9141 5.56067 54.7748 5.738C54.6481 5.852 54.5404 5.99133 54.4518 6.156C54.3758 6.308 54.2998 6.48533 54.2238 6.688V11.989C54.2238 12.4957 54.4454 12.8123 54.8888 12.939L55.4968 13.11V13.3H50.5758Z" fill="#111827"/>
<path d="M63.0166 3.876C63.84 3.876 64.543 4.047 65.1256 4.389C65.7083 4.71833 66.1516 5.17433 66.4556 5.757C66.7723 6.327 66.9306 6.97933 66.9306 7.714C66.9306 7.85333 66.9243 7.999 66.9116 8.151C66.8989 8.29033 66.8736 8.417 66.8356 8.531H61.1736C61.1863 9.899 61.4269 10.887 61.8956 11.495C62.3769 12.0903 63.0863 12.388 64.0236 12.388C64.6569 12.388 65.1699 12.2867 65.5626 12.084C65.9553 11.8813 66.3226 11.5837 66.6646 11.191L66.8546 11.362C66.4619 12.0587 65.9363 12.6033 65.2776 12.996C64.6316 13.3887 63.8526 13.585 62.9406 13.585C62.0413 13.585 61.2433 13.395 60.5466 13.015C59.85 12.6223 59.3053 12.065 58.9126 11.343C58.52 10.621 58.3236 9.75967 58.3236 8.759C58.3236 7.72033 58.5516 6.84 59.0076 6.118C59.4636 5.38333 60.0463 4.826 60.7556 4.446C61.4776 4.066 62.2313 3.876 63.0166 3.876ZM62.9596 4.256C62.5923 4.256 62.2756 4.37 62.0096 4.598C61.7563 4.81333 61.5536 5.206 61.4016 5.776C61.2623 6.33333 61.1863 7.125 61.1736 8.151H64.4226C64.5493 6.77033 64.4986 5.776 64.2706 5.168C64.0426 4.56 63.6056 4.256 62.9596 4.256Z" fill="#111827"/>
<path d="M0.430837 28.3V28.11L0.829837 27.958C1.09584 27.8567 1.2605 27.7363 1.32384 27.597C1.39984 27.445 1.43784 27.2423 1.43784 26.989V17.071C1.43784 16.8177 1.39984 16.615 1.32384 16.463C1.24784 16.311 1.08317 16.1907 0.829837 16.102L0.430837 15.95V15.76H5.27584V15.95L4.93384 16.102C4.69317 16.1907 4.5285 16.3173 4.43984 16.482C4.35117 16.634 4.30684 16.8367 4.30684 17.09V27.92H7.23284C7.7015 27.92 8.0435 27.806 8.25884 27.578C8.48684 27.35 8.70217 27.0207 8.90484 26.59L9.64584 24.994H9.83584L9.66484 28.3H0.430837Z" fill="#111827"/>
<path d="M15.0046 18.876C15.8279 18.876 16.5309 19.047 17.1136 19.389C17.6962 19.7183 18.1396 20.1743 18.4436 20.757C18.7602 21.327 18.9186 21.9793 18.9186 22.714C18.9186 22.8533 18.9122 22.999 18.8996 23.151C18.8869 23.2903 18.8616 23.417 18.8236 23.531H13.1616C13.1742 24.899 13.4149 25.887 13.8836 26.495C14.3649 27.0903 15.0742 27.388 16.0116 27.388C16.6449 27.388 17.1579 27.2867 17.5506 27.084C17.9432 26.8813 18.3106 26.5837 18.6526 26.191L18.8426 26.362C18.4499 27.0587 17.9242 27.6033 17.2656 27.996C16.6196 28.3887 15.8406 28.585 14.9286 28.585C14.0292 28.585 13.2312 28.395 12.5346 28.015C11.8379 27.6223 11.2932 27.065 10.9006 26.343C10.5079 25.621 10.3116 24.7597 10.3116 23.759C10.3116 22.7203 10.5396 21.84 10.9956 21.118C11.4516 20.3833 12.0342 19.826 12.7436 19.446C13.4656 19.066 14.2192 18.876 15.0046 18.876ZM14.9476 19.256C14.5802 19.256 14.2636 19.37 13.9976 19.598C13.7442 19.8133 13.5416 20.206 13.3896 20.776C13.2502 21.3333 13.1742 22.125 13.1616 23.151H16.4106C16.5372 21.7703 16.4866 20.776 16.2586 20.168C16.0306 19.56 15.5936 19.256 14.9476 19.256Z" fill="#111827"/>
<path d="M19.2999 28.3V28.11L19.6419 27.996C19.8952 27.9073 20.0663 27.787 20.1549 27.635C20.2436 27.483 20.2879 27.2803 20.2879 27.027C20.3006 26.267 20.3069 25.5007 20.3069 24.728C20.3069 23.9553 20.3069 23.1827 20.3069 22.41V21.65C20.3069 20.89 20.3069 20.13 20.3069 19.37C20.3069 18.5973 20.3006 17.831 20.2879 17.071C20.2879 16.8177 20.2499 16.615 20.1739 16.463C20.1106 16.311 19.9586 16.1907 19.7179 16.102L19.2999 15.95V15.76H28.4959L28.6289 18.914H28.4389L27.3559 16.919C27.2293 16.6783 27.0836 16.4883 26.9189 16.349C26.7543 16.2097 26.5263 16.14 26.2349 16.14H23.1759C23.1632 17.0393 23.1569 17.9577 23.1569 18.895C23.1569 19.8323 23.1569 20.7633 23.1569 21.688H25.1329C25.4242 21.688 25.6396 21.6247 25.7789 21.498C25.9182 21.3713 26.0512 21.1877 26.1779 20.947L26.5769 20.225H26.7669V23.55H26.5769L26.1589 22.828C26.0322 22.6 25.8992 22.4163 25.7599 22.277C25.6332 22.1377 25.4242 22.068 25.1329 22.068H23.1569C23.1569 22.9547 23.1569 23.8033 23.1569 24.614C23.1569 25.412 23.1632 26.1973 23.1759 26.97C23.1759 27.464 23.4166 27.787 23.8979 27.939L24.4679 28.11V28.3H19.2999Z" fill="#111827"/>
<path d="M32.9097 28.585C31.947 28.585 31.111 28.3887 30.4017 27.996C29.6924 27.5907 29.1414 27.0207 28.7487 26.286C28.3687 25.5513 28.1787 24.69 28.1787 23.702C28.1787 22.714 28.3814 21.859 28.7867 21.137C29.2047 20.415 29.7684 19.8577 30.4777 19.465C31.1997 19.0723 32.0104 18.876 32.9097 18.876C33.809 18.876 34.6134 19.0723 35.3227 19.465C36.032 19.845 36.5894 20.396 36.9947 21.118C37.4127 21.84 37.6217 22.7013 37.6217 23.702C37.6217 24.7027 37.4254 25.5703 37.0327 26.305C36.6527 27.027 36.108 27.5907 35.3987 27.996C34.702 28.3887 33.8724 28.585 32.9097 28.585ZM32.9097 28.205C33.353 28.205 33.7077 28.0783 33.9737 27.825C34.2397 27.5717 34.4297 27.122 34.5437 26.476C34.6704 25.83 34.7337 24.918 34.7337 23.74C34.7337 22.5493 34.6704 21.631 34.5437 20.985C34.4297 20.339 34.2397 19.8893 33.9737 19.636C33.7077 19.3827 33.353 19.256 32.9097 19.256C32.4664 19.256 32.1054 19.3827 31.8267 19.636C31.5607 19.8893 31.3644 20.339 31.2377 20.985C31.1237 21.631 31.0667 22.5493 31.0667 23.74C31.0667 24.918 31.1237 25.83 31.2377 26.476C31.3644 27.122 31.5607 27.5717 31.8267 27.825C32.1054 28.0783 32.4664 28.205 32.9097 28.205Z" fill="#111827"/>
<path d="M41.403 28.585C40.909 28.585 40.453 28.49 40.035 28.3C39.6297 28.11 39.3067 27.806 39.066 27.388C38.838 26.9573 38.7303 26.3937 38.743 25.697L38.8 20.814C38.8 20.5227 38.7493 20.3137 38.648 20.187C38.5467 20.0603 38.3883 19.9717 38.173 19.921L37.945 19.845V19.655L41.346 18.99L41.536 19.18L41.441 21.878V26.457C41.441 26.8623 41.555 27.16 41.783 27.35C42.0237 27.54 42.3213 27.635 42.676 27.635C43.0307 27.635 43.3473 27.5843 43.626 27.483C43.9047 27.3817 44.1833 27.2297 44.462 27.027L44.538 20.833C44.538 20.5417 44.4937 20.339 44.405 20.225C44.3163 20.0983 44.1517 20.0097 43.911 19.959L43.721 19.902V19.712L47.046 18.99L47.236 19.18L47.179 21.878V27.027C47.179 27.3057 47.217 27.521 47.293 27.673C47.369 27.825 47.5337 27.9517 47.787 28.053L47.977 28.11V28.3L44.652 28.49L44.481 27.369C44.063 27.711 43.607 28.0023 43.113 28.243C42.6317 28.471 42.0617 28.585 41.403 28.585Z" fill="#111827"/>
<path d="M48.3263 28.3V28.11L48.6113 28.034C48.8646 27.958 49.0356 27.844 49.1243 27.692C49.2256 27.54 49.2763 27.3437 49.2763 27.103V21.156C49.2763 20.8773 49.2256 20.6747 49.1243 20.548C49.0356 20.4087 48.8646 20.3137 48.6113 20.263L48.3263 20.187V19.997L51.5943 18.895L51.7843 19.085L51.9553 20.719V20.871C52.1326 20.5163 52.3606 20.1933 52.6393 19.902C52.9306 19.598 53.2473 19.351 53.5893 19.161C53.9439 18.971 54.2923 18.876 54.6343 18.876C55.1156 18.876 55.4829 19.009 55.7363 19.275C55.9896 19.541 56.1163 19.8767 56.1163 20.282C56.1163 20.7127 55.9896 21.0483 55.7363 21.289C55.4956 21.517 55.2043 21.631 54.8623 21.631C54.3303 21.631 53.8616 21.365 53.4563 20.833L53.4183 20.795C53.2916 20.6177 53.1459 20.5227 52.9813 20.51C52.8166 20.4847 52.6646 20.5607 52.5253 20.738C52.3986 20.852 52.2909 20.9913 52.2023 21.156C52.1263 21.308 52.0503 21.4853 51.9743 21.688V26.989C51.9743 27.4957 52.1959 27.8123 52.6393 27.939L53.2473 28.11V28.3H48.3263Z" fill="#111827"/>
<path d="M56.295 28.3V28.11L56.561 28.034C57.0043 27.9073 57.226 27.597 57.226 27.103V21.156C57.226 20.8773 57.1817 20.6747 57.093 20.548C57.0043 20.4087 56.8333 20.3137 56.58 20.263L56.295 20.187V19.997L59.544 18.895L59.734 19.085L59.886 20.225C60.3293 19.8323 60.8297 19.5093 61.387 19.256C61.9443 19.0027 62.4953 18.876 63.04 18.876C63.876 18.876 64.5157 19.104 64.959 19.56C65.415 20.016 65.643 20.7127 65.643 21.65V27.122C65.643 27.616 65.8837 27.9263 66.365 28.053L66.536 28.11V28.3H62.052V28.11L62.299 28.034C62.7423 27.8947 62.964 27.5843 62.964 27.103V21.042C62.964 20.2313 62.5587 19.826 61.748 19.826C61.1907 19.826 60.5827 20.1047 59.924 20.662V27.122C59.924 27.616 60.1457 27.9263 60.589 28.053L60.76 28.11V28.3H56.295Z" fill="#111827"/>
<path d="M69.1414 17.888C68.7107 17.888 68.3434 17.755 68.0394 17.489C67.748 17.2103 67.6024 16.862 67.6024 16.444C67.6024 16.0133 67.748 15.665 68.0394 15.399C68.3434 15.133 68.7107 15 69.1414 15C69.572 15 69.933 15.133 70.2244 15.399C70.5157 15.665 70.6614 16.0133 70.6614 16.444C70.6614 16.862 70.5157 17.2103 70.2244 17.489C69.933 17.755 69.572 17.888 69.1414 17.888ZM66.8994 28.3V28.11L67.1654 28.034C67.4187 27.958 67.5897 27.844 67.6784 27.692C67.7797 27.54 67.8304 27.3373 67.8304 27.084V21.137C67.8304 20.871 67.7797 20.6747 67.6784 20.548C67.5897 20.4087 67.4187 20.3137 67.1654 20.263L66.8994 20.206V20.016L70.3764 18.895L70.5664 19.085L70.5094 21.783V27.103C70.5094 27.3563 70.5537 27.559 70.6424 27.711C70.7437 27.863 70.9147 27.977 71.1554 28.053L71.3454 28.11V28.3H66.8994Z" fill="#111827"/>
<path d="M76.5376 18.876C77.3609 18.876 78.0639 19.047 78.6466 19.389C79.2292 19.7183 79.6726 20.1743 79.9766 20.757C80.2932 21.327 80.4516 21.9793 80.4516 22.714C80.4516 22.8533 80.4452 22.999 80.4326 23.151C80.4199 23.2903 80.3946 23.417 80.3566 23.531H74.6946C74.7072 24.899 74.9479 25.887 75.4166 26.495C75.8979 27.0903 76.6072 27.388 77.5446 27.388C78.1779 27.388 78.6909 27.2867 79.0836 27.084C79.4762 26.8813 79.8436 26.5837 80.1856 26.191L80.3756 26.362C79.9829 27.0587 79.4572 27.6033 78.7986 27.996C78.1526 28.3887 77.3736 28.585 76.4616 28.585C75.5622 28.585 74.7642 28.395 74.0676 28.015C73.3709 27.6223 72.8262 27.065 72.4336 26.343C72.0409 25.621 71.8446 24.7597 71.8446 23.759C71.8446 22.7203 72.0726 21.84 72.5286 21.118C72.9846 20.3833 73.5672 19.826 74.2766 19.446C74.9986 19.066 75.7522 18.876 76.5376 18.876ZM76.4806 19.256C76.1132 19.256 75.7966 19.37 75.5306 19.598C75.2772 19.8133 75.0746 20.206 74.9226 20.776C74.7832 21.3333 74.7072 22.125 74.6946 23.151H77.9436C78.0702 21.7703 78.0196 20.776 77.7916 20.168C77.5636 19.56 77.1266 19.256 76.4806 19.256Z" fill="#111827"/>
<path d="M80.9804 28.3V28.11L81.2654 28.034C81.5188 27.958 81.6898 27.844 81.7785 27.692C81.8798 27.54 81.9305 27.3437 81.9305 27.103V21.156C81.9305 20.8773 81.8798 20.6747 81.7785 20.548C81.6898 20.4087 81.5188 20.3137 81.2654 20.263L80.9804 20.187V19.997L84.2485 18.895L84.4385 19.085L84.6095 20.719V20.871C84.7868 20.5163 85.0148 20.1933 85.2935 19.902C85.5848 19.598 85.9014 19.351 86.2434 19.161C86.5981 18.971 86.9465 18.876 87.2885 18.876C87.7698 18.876 88.1371 19.009 88.3905 19.275C88.6438 19.541 88.7704 19.8767 88.7704 20.282C88.7704 20.7127 88.6438 21.0483 88.3905 21.289C88.1498 21.517 87.8584 21.631 87.5164 21.631C86.9844 21.631 86.5158 21.365 86.1105 20.833L86.0725 20.795C85.9458 20.6177 85.8001 20.5227 85.6355 20.51C85.4708 20.4847 85.3188 20.5607 85.1795 20.738C85.0528 20.852 84.9451 20.9913 84.8564 21.156C84.7804 21.308 84.7044 21.4853 84.6284 21.688V26.989C84.6284 27.4957 84.8501 27.8123 85.2935 27.939L85.9015 28.11V28.3H80.9804Z" fill="#111827"/>
<path d="M19.0597 31.1H19.4437L20.9797 35.3H20.5537L20.2297 34.406H18.2737L17.9497 35.3H17.5237L19.0597 31.1ZM20.0917 34.034L19.3297 31.892L19.2517 31.544L19.1737 31.892L18.4057 34.034H20.0917Z" fill="#111827"/>
<path d="M21.3889 31.1H22.6309C23.0989 31.1 23.4609 31.218 23.7169 31.454C23.9729 31.69 24.1009 32.012 24.1009 32.42C24.1009 32.972 23.8389 33.37 23.3149 33.614L24.2629 35.3H23.8129L22.9189 33.716H21.7969V35.3H21.3889V31.1ZM22.7089 33.344C23.0209 33.344 23.2629 33.264 23.4349 33.104C23.6069 32.944 23.6929 32.712 23.6929 32.408C23.6929 32.104 23.6069 31.872 23.4349 31.712C23.2629 31.552 23.0209 31.472 22.7089 31.472H21.7969V33.344H22.7089Z" fill="#111827"/>
<path d="M25.4373 31.472H24.3693V31.1H26.9133V31.472H25.8453V35.3H25.4373V31.472Z" fill="#111827"/>
<path d="M27.4179 31.1H27.8259V35.3H27.4179V31.1Z" fill="#111827"/>
<path d="M29.8779 35.36C29.6059 35.36 29.3579 35.31 29.1339 35.21C28.9139 35.106 28.7359 34.956 28.5999 34.76C28.4679 34.56 28.3939 34.322 28.3779 34.046H28.7859C28.8699 34.674 29.2339 34.988 29.8779 34.988C30.1899 34.988 30.4379 34.902 30.6219 34.73C30.8059 34.554 30.8979 34.328 30.8979 34.052C30.8979 33.884 30.8619 33.744 30.7899 33.632C30.7179 33.52 30.5999 33.426 30.4359 33.35C30.2759 33.274 30.0539 33.204 29.7699 33.14C29.3459 33.048 29.0319 32.914 28.8279 32.738C28.6279 32.558 28.5279 32.326 28.5279 32.042C28.5279 31.85 28.5819 31.678 28.6899 31.526C28.7979 31.37 28.9459 31.25 29.1339 31.166C29.3219 31.082 29.5299 31.04 29.7579 31.04C30.1339 31.04 30.4439 31.136 30.6879 31.328C30.9319 31.52 31.0699 31.79 31.1019 32.138H30.7119C30.6839 31.91 30.5819 31.732 30.4059 31.604C30.2339 31.476 30.0179 31.412 29.7579 31.412C29.5059 31.412 29.3059 31.468 29.1579 31.58C29.0099 31.692 28.9359 31.842 28.9359 32.03C28.9359 32.23 29.0199 32.386 29.1879 32.498C29.3599 32.606 29.6439 32.706 30.0399 32.798C30.4919 32.902 30.8159 33.048 31.0119 33.236C31.2079 33.42 31.3059 33.686 31.3059 34.034C31.3059 34.294 31.2439 34.526 31.1199 34.73C30.9959 34.93 30.8259 35.086 30.6099 35.198C30.3939 35.306 30.1499 35.36 29.8779 35.36Z" fill="#111827"/>
<path d="M32.9954 31.1H33.3794L34.9154 35.3H34.4894L34.1654 34.406H32.2094L31.8854 35.3H31.4594L32.9954 31.1ZM34.0274 34.034L33.2654 31.892L33.1874 31.544L33.1094 31.892L32.3414 34.034H34.0274Z" fill="#111827"/>
<path d="M35.3246 31.1H35.7926L37.9046 34.64V31.1H38.3126V35.3H37.8446L35.7326 31.76V35.3H35.3246V31.1Z" fill="#111827"/>
<path d="M40.1466 31.1H41.6346C42.0186 31.1 42.3166 31.2 42.5286 31.4C42.7446 31.6 42.8526 31.86 42.8526 32.18C42.8526 32.364 42.8086 32.532 42.7206 32.684C42.6366 32.836 42.5186 32.962 42.3666 33.062C42.8506 33.266 43.0926 33.62 43.0926 34.124C43.0926 34.356 43.0346 34.562 42.9186 34.742C42.8066 34.918 42.6506 35.056 42.4506 35.156C42.2506 35.252 42.0246 35.3 41.7726 35.3H40.1466V31.1ZM41.6466 32.948C41.8946 32.948 42.0886 32.884 42.2286 32.756C42.3726 32.628 42.4446 32.446 42.4446 32.21C42.4446 31.974 42.3706 31.792 42.2226 31.664C42.0786 31.536 41.8806 31.472 41.6286 31.472H40.5546V32.948H41.6466ZM41.8146 34.928C42.0626 34.928 42.2686 34.86 42.4326 34.724C42.6006 34.584 42.6846 34.384 42.6846 34.124C42.6846 33.864 42.6006 33.666 42.4326 33.53C42.2686 33.39 42.0626 33.32 41.8146 33.32H40.5546V34.928H41.8146Z" fill="#111827"/>
<path d="M45.5146 35.36C45.1306 35.36 44.7826 35.266 44.4706 35.078C44.1626 34.89 43.9186 34.632 43.7386 34.304C43.5626 33.972 43.4746 33.604 43.4746 33.2C43.4746 32.796 43.5626 32.43 43.7386 32.102C43.9186 31.77 44.1626 31.51 44.4706 31.322C44.7826 31.134 45.1306 31.04 45.5146 31.04C45.8986 31.04 46.2446 31.134 46.5526 31.322C46.8646 31.51 47.1086 31.77 47.2846 32.102C47.4646 32.43 47.5546 32.796 47.5546 33.2C47.5546 33.604 47.4646 33.972 47.2846 34.304C47.1086 34.632 46.8646 34.89 46.5526 35.078C46.2446 35.266 45.8986 35.36 45.5146 35.36ZM45.5146 34.988C45.8346 34.988 46.1186 34.912 46.3666 34.76C46.6146 34.608 46.8066 34.396 46.9426 34.124C47.0786 33.852 47.1466 33.544 47.1466 33.2C47.1466 32.856 47.0786 32.548 46.9426 32.276C46.8066 32.004 46.6146 31.792 46.3666 31.64C46.1186 31.488 45.8346 31.412 45.5146 31.412C45.1946 31.412 44.9106 31.488 44.6626 31.64C44.4146 31.792 44.2226 32.004 44.0866 32.276C43.9506 32.548 43.8826 32.856 43.8826 33.2C43.8826 33.544 43.9506 33.852 44.0866 34.124C44.2226 34.396 44.4146 34.608 44.6626 34.76C44.9106 34.912 45.1946 34.988 45.5146 34.988Z" fill="#111827"/>
<path d="M49.5843 35.36C49.1243 35.36 48.7683 35.224 48.5163 34.952C48.2683 34.676 48.1443 34.292 48.1443 33.8V31.1H48.5523V33.806C48.5523 34.178 48.6443 34.468 48.8283 34.676C49.0123 34.884 49.2643 34.988 49.5843 34.988C49.9043 34.988 50.1563 34.884 50.3403 34.676C50.5243 34.468 50.6163 34.178 50.6163 33.806V31.1H51.0243V33.8C51.0243 34.292 50.8983 34.676 50.6463 34.952C50.3983 35.224 50.0443 35.36 49.5843 35.36Z" fill="#111827"/>
<path d="M51.733 31.1H52.141V34.928H54.211V35.3H51.733V31.1Z" fill="#111827"/>
<path d="M56.0714 31.1H56.4554L57.9914 35.3H57.5654L57.2414 34.406H55.2854L54.9614 35.3H54.5354L56.0714 31.1ZM57.1034 34.034L56.3414 31.892L56.2634 31.544L56.1854 31.892L55.4174 34.034H57.1034Z" fill="#111827"/>
<path d="M58.4006 31.1H58.8686L60.9806 34.64V31.1H61.3886V35.3H60.9206L58.8086 31.76V35.3H58.4006V31.1Z" fill="#111827"/>
<path d="M64.0148 35.36C63.6388 35.36 63.2948 35.27 62.9828 35.09C62.6708 34.906 62.4248 34.65 62.2448 34.322C62.0648 33.994 61.9748 33.62 61.9748 33.2C61.9748 32.78 62.0648 32.406 62.2448 32.078C62.4248 31.75 62.6688 31.496 62.9768 31.316C63.2888 31.132 63.6348 31.04 64.0148 31.04C64.3308 31.04 64.6148 31.096 64.8668 31.208C65.1188 31.32 65.3228 31.476 65.4788 31.676C65.6388 31.872 65.7468 32.096 65.8028 32.348H65.3948C65.3028 32.044 65.1408 31.812 64.9088 31.652C64.6768 31.492 64.3788 31.412 64.0148 31.412C63.6908 31.412 63.4048 31.49 63.1568 31.646C62.9128 31.798 62.7228 32.01 62.5868 32.282C62.4508 32.55 62.3828 32.856 62.3828 33.2C62.3828 33.544 62.4508 33.852 62.5868 34.124C62.7228 34.392 62.9128 34.604 63.1568 34.76C63.4048 34.912 63.6908 34.988 64.0148 34.988C64.4828 34.988 64.8408 34.856 65.0888 34.592C65.3368 34.324 65.4688 33.952 65.4848 33.476H63.7088V33.104H65.8928V33.386C65.8928 33.774 65.8148 34.118 65.6588 34.418C65.5028 34.714 65.2828 34.946 64.9988 35.114C64.7148 35.278 64.3868 35.36 64.0148 35.36Z" fill="#111827"/>
<path d="M66.4804 31.1H68.8264V31.472H66.8884V33.014H68.6644V33.386H66.8884V34.928H68.8924V35.3H66.4804V31.1Z" fill="#111827"/>
<path d="M69.5183 31.1H70.7603C71.2283 31.1 71.5903 31.218 71.8463 31.454C72.1023 31.69 72.2303 32.012 72.2303 32.42C72.2303 32.972 71.9683 33.37 71.4443 33.614L72.3923 35.3H71.9423L71.0483 33.716H69.9263V35.3H69.5183V31.1ZM70.8383 33.344C71.1503 33.344 71.3923 33.264 71.5643 33.104C71.7363 32.944 71.8223 32.712 71.8223 32.408C71.8223 32.104 71.7363 31.872 71.5643 31.712C71.3923 31.552 71.1503 31.472 70.8383 31.472H69.9263V33.344H70.8383Z" fill="#111827"/>
<path d="M73 33.3H89V33.5H73V33.3Z" fill="#111827"/>
<path d="M0 33.3H16V33.5H0V33.3Z" fill="#111827"/>
</svg>
