<svg width="200" height="160" viewBox="0 0 200 160" fill="none" xmlns="http://www.w3.org/2000/svg">
<path d="M50.7879 154.125V158.974C50.7879 159.161 50.7879 159.347 50.878 159.44C50.968 159.534 51.1481 159.627 51.3282 159.72V160H48.7168V159.72C48.8969 159.627 49.077 159.534 49.167 159.44C49.2571 159.347 49.2571 159.161 49.2571 158.974V147.971C49.2571 147.784 49.2571 147.598 49.167 147.504C49.077 147.411 48.8969 147.318 48.7168 147.225V146.945H55.2904C56.1909 146.945 56.9113 147.038 57.4516 147.131C57.9919 147.225 58.4421 147.411 58.8023 147.691C59.2526 147.971 59.5227 148.344 59.7929 148.81C60.063 149.369 60.2431 149.929 60.2431 150.582C60.2431 151.421 59.973 152.26 59.4327 152.82C59.0725 153.286 58.5322 153.659 57.9018 153.845C57.2715 154.032 56.371 154.125 55.2904 154.125H50.7879ZM50.7879 152.82H55.4705C56.1909 152.82 56.6411 152.82 57.0013 152.726C57.3615 152.633 57.6317 152.54 57.9018 152.353C58.5322 151.98 58.8023 151.328 58.8023 150.488C58.8023 149.556 58.5322 148.903 57.9018 148.53C57.6317 148.344 57.3615 148.25 57.0013 148.157C56.6411 148.064 56.1909 148.064 55.4705 148.064H50.7879V152.82ZM81.1346 156.27H74.4709L73.3904 158.694C73.3003 158.974 73.2103 159.067 73.2103 159.161C73.2103 159.347 73.3904 159.44 73.7506 159.534V159.813H70.959V159.534C71.2292 159.534 71.4093 159.44 71.4993 159.254C71.5894 159.067 71.7695 158.788 72.0396 158.321L76.6321 148.064C76.7222 147.784 76.8122 147.691 76.8122 147.598C76.8122 147.411 76.6321 147.318 76.362 147.225V146.945H79.4237V147.225C79.1535 147.318 78.9734 147.504 78.9734 147.598C78.9734 147.691 79.0635 147.784 79.1535 148.064L83.566 157.948L84.1963 159.254C84.2864 159.347 84.5565 159.534 84.9167 159.534V159.813H81.9451V159.534C82.3053 159.44 82.4854 159.347 82.4854 159.161C82.4854 159.067 82.3953 158.881 82.3053 158.601L81.1346 156.27ZM80.6844 155.058L77.8928 148.623L75.1013 155.058H80.6844ZM99.4147 158.788C99.4147 159.067 99.4147 159.254 99.5047 159.347C99.5948 159.44 99.7749 159.534 99.955 159.627V159.907H97.3435V159.627C97.6137 159.534 97.7037 159.44 97.7938 159.347C97.8838 159.254 97.8838 159.067 97.8838 158.788V148.064C97.8838 147.784 97.8838 147.598 97.7938 147.504C97.7037 147.411 97.5236 147.318 97.3435 147.225V146.945H104.187C105.088 146.945 105.898 147.038 106.439 147.131C106.979 147.225 107.429 147.411 107.879 147.691C108.33 147.971 108.6 148.344 108.87 148.81C109.14 149.369 109.32 149.929 109.32 150.582C109.32 151.607 108.96 152.353 108.33 153.006C107.699 153.659 106.799 154.032 105.718 154.032L108.87 159.161C109.05 159.44 109.32 159.627 109.68 159.627V159.907H106.799V159.627C107.069 159.534 107.249 159.534 107.249 159.347C107.249 159.254 107.159 159.067 106.889 158.694L104.007 154.032H99.4147V158.788ZM104.457 152.82C105.178 152.82 105.628 152.82 105.988 152.726C106.348 152.633 106.619 152.54 106.889 152.353C107.519 151.98 107.789 151.328 107.789 150.488C107.789 149.556 107.429 148.903 106.799 148.53C106.529 148.344 106.168 148.25 105.808 148.157C105.448 148.064 104.908 148.064 104.187 148.064H99.2346V152.82H104.457ZM123.548 158.788V148.064C123.548 147.784 123.548 147.598 123.458 147.504C123.368 147.411 123.188 147.318 123.008 147.225V146.945H125.619V147.225C125.349 147.318 125.259 147.411 125.169 147.504C125.079 147.598 125.079 147.784 125.079 148.064V158.788C125.079 159.067 125.079 159.254 125.169 159.347C125.259 159.44 125.439 159.534 125.619 159.627V159.907H123.008V159.627C123.278 159.534 123.368 159.44 123.458 159.347C123.548 159.254 123.548 159.067 123.548 158.788ZM151.283 147.784L149.932 150.209L149.662 150.022C149.752 149.742 149.842 149.556 149.842 149.463C149.842 149.276 149.572 149.09 149.122 148.81C147.861 148.25 146.601 147.877 145.25 147.877C144.079 147.877 143.089 148.064 142.278 148.53C141.918 148.717 141.558 148.996 141.288 149.369C141.018 149.742 140.928 150.115 140.928 150.488C140.928 150.768 141.018 151.141 141.198 151.421C141.378 151.701 141.648 151.887 141.918 152.074C142.278 152.26 142.638 152.353 143.089 152.447C143.539 152.54 144.259 152.54 145.25 152.54C146.691 152.54 147.681 152.633 148.222 152.726C148.852 152.82 149.302 153.006 149.752 153.193C150.833 153.752 151.283 154.685 151.283 155.897C151.283 157.109 150.833 158.042 149.842 158.788C148.762 159.627 147.321 160 145.52 160C144.439 160 143.539 159.907 142.729 159.627C141.918 159.44 141.018 158.974 139.937 158.415C139.667 158.228 139.487 158.228 139.397 158.228C139.307 158.228 139.127 158.321 138.946 158.601L138.676 158.415L140.027 155.99L140.297 156.177C140.207 156.456 140.117 156.643 140.117 156.643C140.117 156.829 140.477 157.202 141.288 157.575C142.008 157.948 142.638 158.228 143.359 158.415C143.989 158.601 144.71 158.694 145.52 158.694C147.051 158.694 148.222 158.321 149.032 157.669C149.572 157.202 149.842 156.643 149.842 155.99C149.842 155.151 149.392 154.591 148.492 154.218C148.222 154.125 147.861 154.032 147.591 154.032C147.231 154.032 146.421 153.939 144.89 153.939C143.809 153.939 142.999 153.845 142.458 153.659C141.828 153.566 141.288 153.379 140.837 153.099C140.387 152.82 140.027 152.447 139.847 152.074C139.577 151.607 139.487 151.141 139.487 150.582C139.487 149.649 139.847 148.903 140.477 148.25C140.928 147.784 141.648 147.411 142.548 147.131C143.449 146.852 144.349 146.758 145.43 146.758C146.24 146.758 147.051 146.852 147.771 147.038C148.492 147.225 149.302 147.504 150.203 147.971C150.383 148.064 150.563 148.064 150.563 148.064C150.653 148.064 150.833 147.971 151.013 147.691L151.283 147.784ZM11.0761 111.882C4.95272 101.531 1.71094 89.2222 2.25124 76.913C2.79154 64.6038 7.20396 52.5744 13.9577 42.5032C17.3796 37.4676 21.3417 32.8051 25.7542 28.702C30.1666 24.5989 34.9392 20.8689 40.072 17.6983C50.2476 11.264 61.4138 6.69467 72.9401 3.80387C78.7033 2.4051 84.5565 1.37934 90.4998 0.726578C96.353 0.0738181 102.296 -0.205936 108.24 0.16707C109.68 0.260321 111.211 0.260321 112.652 0.353572L117.064 0.726578C120.036 0.913081 122.918 1.47259 125.889 1.93885C127.33 2.12535 128.771 2.49835 130.212 2.77811L134.534 3.71062C135.975 4.08363 137.416 4.54989 138.856 4.92289C140.297 5.38915 141.738 5.6689 143.089 6.22841C145.88 7.25418 148.762 8.09344 151.463 9.39896C152.814 9.95847 154.165 10.518 155.606 11.1707L159.568 13.129L161.549 14.1548L163.44 15.2738L167.312 17.5118C168.573 18.3511 169.833 19.1904 171.004 20.0296L172.895 21.2419C173.525 21.7081 174.066 22.1744 174.696 22.6407L178.208 25.4382L181.54 28.4222C182.08 28.8885 182.62 29.448 183.161 29.9143L184.692 31.5928C185.682 32.7118 186.763 33.7376 187.753 34.8566C191.715 39.4259 195.047 44.4615 197.929 49.7768C196.308 47.259 194.777 44.648 192.886 42.3167C191.986 41.1044 191.175 39.8922 190.095 38.7732L187.123 35.4161C186.132 34.2971 185.052 33.2713 183.971 32.2456L182.35 30.6603C181.81 30.194 181.18 29.7278 180.639 29.2615L177.217 26.3707L173.615 23.7597C172.985 23.2934 172.445 22.8272 171.814 22.4542L169.923 21.2419C168.663 20.4959 167.492 19.6566 166.231 18.8174L162.359 16.6726L160.468 15.6468L154.525 12.8493L150.473 11.1707C147.771 10.0517 144.98 9.21246 142.188 8.27994C131.382 4.73639 119.766 3.05786 108.149 2.77811C102.296 2.59161 96.5331 2.87136 90.7699 3.43087C84.9167 4.08363 79.1535 5.1094 73.5705 6.50817C62.2242 9.30571 51.3282 13.7818 41.4228 19.9364C31.4273 26.091 22.5124 34.1106 15.6686 43.8087C8.9149 53.4136 4.41243 64.9768 3.60198 77.0062C3.15173 82.9743 3.60198 89.1289 4.86267 95.0038C6.21342 100.879 8.28456 106.567 11.0761 111.882ZM148.041 119.809C147.771 119.436 147.321 119.156 146.781 119.063C146.421 118.969 146.06 118.969 145.7 118.969H144.259C143.719 118.969 143.269 118.969 142.909 118.876C142.548 118.783 142.188 118.783 142.008 118.69L141.378 118.41L141.198 118.223V118.037L140.027 118.876C140.297 119.249 140.567 119.529 140.928 119.622C141.288 119.715 141.558 119.809 141.918 119.809H142.188L141.918 121.58C141.828 122.047 141.828 122.513 141.828 122.979C141.828 123.818 142.098 124.378 142.548 124.658C142.999 124.937 143.899 125.124 145.25 125.124C146.24 125.124 147.051 124.844 147.771 124.191C148.492 123.539 148.852 122.793 148.852 121.953C148.852 121.674 148.762 121.394 148.672 121.021C148.582 120.555 148.402 120.182 148.041 119.809ZM147.771 123.166C147.681 123.539 147.411 123.912 146.961 124.098C146.511 124.378 145.97 124.471 145.43 124.471C144.8 124.471 144.259 124.378 143.809 124.098C143.359 123.818 142.999 123.539 142.999 123.166C142.909 122.979 142.909 122.793 142.909 122.606C142.909 122.513 142.909 122.42 142.819 122.233V121.487C142.819 121.021 142.819 120.648 142.909 120.368L143.089 119.622C144.71 119.622 145.97 119.809 146.781 120.182C147.591 120.555 148.041 121.114 148.041 121.953C147.951 122.42 147.861 122.793 147.771 123.166ZM153.174 122.42C152.724 122.047 152.184 121.86 151.553 121.86C151.283 121.86 150.923 121.86 150.563 121.953C150.203 122.047 149.842 122.233 149.572 122.699C149.302 123.072 149.122 123.445 149.122 123.912C149.122 124.191 149.212 124.378 149.302 124.564C149.392 124.751 149.572 124.937 149.752 125.031C150.023 125.124 150.203 125.217 150.383 125.217C150.563 125.217 150.743 125.31 151.013 125.31C151.553 125.31 152.094 125.124 152.634 124.844L153.084 124.378C152.724 124.564 152.454 124.658 152.184 124.658C152.004 124.658 151.914 124.751 151.824 124.751H151.463C150.833 124.751 150.473 124.564 150.383 124.285C150.293 123.912 150.203 123.725 150.203 123.539L153.354 122.699L153.174 122.42ZM151.914 122.886L150.203 123.352C150.203 123.166 150.293 123.072 150.293 122.979C150.293 122.886 150.383 122.793 150.383 122.699C150.473 122.513 150.653 122.326 150.743 122.326H151.103C151.283 122.326 151.553 122.42 151.733 122.513C151.823 122.606 151.914 122.699 151.914 122.886ZM158.397 122.14C158.127 122.047 157.857 121.953 157.407 121.953C157.046 121.953 156.686 122.047 156.236 122.14C155.786 122.326 155.516 122.42 155.335 122.513C155.245 122.42 155.155 122.233 155.065 122.14C154.975 122.047 154.885 121.953 154.795 121.953L154.615 122.047C154.615 122.047 154.525 122.14 154.435 122.14C154.345 122.233 154.255 122.233 154.165 122.233L153.534 122.513H153.624C153.805 122.513 153.985 122.513 154.165 122.606C154.345 122.699 154.435 122.793 154.435 123.072V129.227L155.335 128.481V125.404L156.596 125.124C157.136 125.031 157.677 124.844 158.217 124.564C158.757 124.285 159.027 123.912 159.027 123.352C159.027 123.166 159.027 122.979 158.937 122.793C158.757 122.513 158.667 122.326 158.397 122.14ZM157.497 124.658C157.226 124.844 156.956 124.844 156.596 124.844C156.326 124.844 155.966 124.751 155.696 124.658C155.425 124.564 155.335 124.471 155.335 124.378V122.886C155.335 122.793 155.516 122.606 155.696 122.513C155.966 122.326 156.236 122.233 156.506 122.233C156.776 122.233 157.046 122.326 157.317 122.513C157.587 122.699 157.677 123.072 157.767 123.539V123.818C157.857 124.285 157.677 124.564 157.497 124.658ZM164.611 124.378H164.25C164.07 124.378 163.89 124.285 163.8 124.191C163.71 124.098 163.62 123.818 163.62 123.632V122.326C163.62 122.047 163.53 121.953 163.35 121.953C163.17 121.953 162.99 122.047 162.81 122.14L162.359 122.42H162.539C162.629 122.42 162.719 122.42 162.719 122.513V124.098C162.629 124.191 162.539 124.191 162.449 124.191C162.359 124.191 162.269 124.285 162.089 124.285C161.909 124.378 161.639 124.378 161.369 124.378C161.099 124.378 160.919 124.285 160.828 124.191C160.738 124.005 160.648 123.818 160.648 123.632V122.326C160.648 122.047 160.558 121.953 160.378 121.953C160.198 121.953 159.928 122.047 159.658 122.326L159.298 122.606H159.388C159.478 122.606 159.568 122.699 159.658 122.793C159.748 122.886 159.748 122.979 159.748 123.166V124.378C159.748 124.564 159.838 124.751 160.018 124.937C160.198 125.124 160.378 125.124 160.558 125.124C160.738 125.124 161.189 124.937 161.909 124.658L162.81 124.378C162.81 124.564 162.9 124.751 162.99 124.937C163.08 125.124 163.26 125.124 163.44 125.124C163.62 125.124 163.8 125.031 164.07 124.937C164.34 124.844 164.611 124.564 164.971 124.285C164.881 124.285 164.881 124.378 164.791 124.378C164.791 124.285 164.701 124.378 164.611 124.378ZM166.862 124.471C166.682 124.471 166.592 124.471 166.592 124.378C166.502 124.285 166.502 124.191 166.502 124.098L166.592 123.632C166.682 123.352 166.682 123.166 166.682 122.979C166.682 122.886 166.682 122.699 166.592 122.513C166.502 122.326 166.502 122.233 166.321 122.047H166.231C166.141 122.047 165.961 122.14 165.691 122.326L165.241 122.699C165.421 122.793 165.511 122.886 165.601 122.979C165.691 123.072 165.691 123.166 165.691 123.352C165.691 123.445 165.691 123.632 165.601 123.912C165.511 124.191 165.511 124.378 165.511 124.564C165.511 124.751 165.601 124.937 165.781 125.124C165.871 125.217 166.051 125.217 166.231 125.217C166.502 125.217 166.772 125.124 166.952 124.937L167.582 124.471H167.492C167.222 124.378 167.042 124.471 166.862 124.471ZM165.961 121.674C166.141 121.58 166.412 121.487 166.592 121.207C166.862 121.021 167.042 120.834 167.042 120.648H166.952C166.862 120.741 166.772 120.741 166.682 120.741H166.502C166.412 120.741 166.321 120.741 166.321 120.648C166.231 120.555 166.231 120.461 166.231 120.368H165.961C165.601 120.555 165.421 120.834 165.331 120.928C165.331 121.021 165.331 121.207 165.511 121.394C165.691 121.674 165.871 121.674 165.961 121.674ZM168.933 122.326C169.023 122.326 169.203 122.233 169.293 122.233C169.473 122.233 169.743 122.233 170.014 122.326C170.284 122.42 170.464 122.513 170.554 122.606L171.454 122.047C171.094 121.86 170.644 121.767 170.194 121.767C169.653 121.767 169.203 121.86 168.753 122.14C168.303 122.42 168.032 122.699 167.942 122.886C167.852 122.979 167.852 123.072 167.852 123.166C167.852 123.259 167.852 123.259 167.762 123.352C167.762 123.539 168.213 123.632 169.023 123.725C169.833 123.818 170.284 124.005 170.284 124.285V124.471C170.284 124.564 170.194 124.658 170.104 124.658C170.014 124.751 169.833 124.751 169.653 124.751C169.383 124.751 169.203 124.751 168.933 124.658C168.753 124.564 168.573 124.471 168.483 124.285L167.582 124.844C167.762 124.937 167.942 125.031 168.032 125.031C168.213 125.031 168.393 125.124 168.573 125.124C169.203 125.124 169.833 124.937 170.464 124.564C171.094 124.191 171.454 123.912 171.454 123.725C171.454 123.445 171.004 123.166 170.104 123.072C169.203 122.886 168.753 122.699 168.753 122.42C168.753 122.42 168.843 122.326 168.933 122.326ZM175.416 118.596C175.236 118.596 175.056 118.69 174.696 118.876L174.066 119.342H174.606C174.696 119.342 174.786 119.436 174.786 119.436V125.124L175.867 124.564V118.969C175.867 118.783 175.867 118.69 175.777 118.596H175.416ZM179.108 118.503C178.838 118.503 178.658 118.503 178.388 118.596C178.118 118.69 177.848 118.783 177.578 118.969C177.308 119.156 177.037 119.342 176.857 119.715C176.677 120.088 176.587 120.461 176.587 120.834C176.587 121.207 176.677 121.58 176.947 121.86C177.127 122.14 177.488 122.233 177.848 122.233C178.028 122.233 178.298 122.233 178.478 122.14C178.748 122.047 178.928 121.953 179.199 121.767H178.928C178.568 121.767 178.298 121.674 178.028 121.58C177.758 121.394 177.578 121.207 177.488 120.928C177.398 120.741 177.398 120.648 177.398 120.555V120.275C177.398 119.902 177.488 119.622 177.758 119.342C177.938 119.156 178.208 118.969 178.568 118.969C178.928 118.969 179.289 119.063 179.649 119.342C180.009 119.622 180.279 119.995 180.369 120.368C180.549 120.741 180.639 121.114 180.639 121.487C180.639 122.233 180.369 122.886 179.919 123.632C179.469 124.378 178.838 124.937 178.118 125.31C178.208 125.31 178.298 125.31 178.388 125.217C178.478 125.217 178.568 125.124 178.748 125.124C179.018 125.031 179.469 124.751 179.829 124.285C180.279 123.912 180.639 123.445 180.909 122.886L181.45 121.767C181.54 121.487 181.54 121.207 181.54 120.928C181.54 120.275 181.36 119.622 180.909 119.156C180.279 118.69 179.739 118.503 179.108 118.503ZM186.493 124.098C186.222 124.191 185.862 124.285 185.412 124.285C185.142 124.285 184.872 124.285 184.602 124.191C184.331 124.098 184.061 123.912 183.791 123.725C183.791 123.725 184.061 123.539 184.511 123.072C184.782 122.793 184.962 122.606 185.142 122.326C185.322 122.047 185.592 121.767 185.772 121.487C186.132 120.928 186.312 120.368 186.312 119.809C186.312 119.622 186.222 119.342 186.132 119.156C186.042 118.969 185.862 118.783 185.682 118.69C185.502 118.596 185.232 118.503 184.872 118.503C184.602 118.503 184.331 118.503 183.971 118.596C183.701 118.69 183.431 118.783 183.161 118.969C182.62 119.342 182.26 119.809 182.08 120.368L183.161 119.809C183.161 119.436 183.251 119.249 183.431 119.063C183.611 118.876 183.791 118.876 183.971 118.876C184.331 118.876 184.602 119.063 184.962 119.342C185.232 119.622 185.412 119.995 185.412 120.461C185.412 121.114 185.142 121.767 184.602 122.42C184.331 122.793 184.061 123.072 183.701 123.259C183.431 123.539 183.071 123.725 182.71 124.005C182.08 124.471 181.72 124.658 181.63 124.658C181.99 124.564 182.35 124.471 182.62 124.471C182.981 124.471 183.341 124.564 183.791 124.751C184.241 124.937 184.602 125.031 184.782 125.031C185.052 125.031 185.412 124.937 185.772 124.751C186.222 124.471 186.673 124.191 187.213 123.632C187.123 123.725 186.943 123.818 186.853 123.818C186.763 123.912 186.673 124.005 186.493 124.098ZM190.185 118.503C189.914 118.503 189.734 118.503 189.464 118.596C189.194 118.69 188.924 118.783 188.654 118.969C188.384 119.156 188.113 119.342 187.933 119.715C187.753 120.088 187.663 120.461 187.663 120.834C187.663 121.207 187.753 121.58 188.023 121.86C188.204 122.14 188.564 122.233 188.924 122.233C189.104 122.233 189.374 122.233 189.554 122.14C189.824 122.047 190.005 121.953 190.275 121.767H190.005C189.644 121.767 189.374 121.674 189.104 121.58C188.834 121.394 188.654 121.207 188.564 120.928C188.474 120.741 188.474 120.648 188.474 120.555V120.275C188.474 119.902 188.564 119.622 188.834 119.342C189.014 119.156 189.284 118.969 189.644 118.969C190.005 118.969 190.365 119.063 190.725 119.342C191.085 119.622 191.355 119.995 191.445 120.368C191.625 120.741 191.715 121.114 191.715 121.487C191.715 122.233 191.445 122.886 190.995 123.632C190.545 124.378 189.914 124.937 189.194 125.31C189.284 125.31 189.374 125.31 189.464 125.217C189.554 125.217 189.644 125.124 189.824 125.124C190.095 125.031 190.545 124.751 190.905 124.285C191.355 123.912 191.715 123.445 191.986 122.886L192.526 121.767C192.616 121.487 192.616 121.207 192.616 120.928C192.616 120.275 192.436 119.622 191.986 119.156C191.355 118.69 190.815 118.503 190.185 118.503ZM1.71094 120.555L18.1 120.461L34.489 120.182C45.475 119.995 56.371 119.995 67.357 120.088C78.3431 120.182 89.2391 120.368 100.225 120.461H116.614L124.809 120.368H126.88C127.15 120.368 127.6 120.368 128.05 120.461C128.411 120.648 128.771 120.928 129.041 121.207C129.311 121.58 129.401 121.953 129.401 122.42V122.979C129.401 123.166 129.401 123.445 129.311 123.632C129.041 124.471 128.231 125.031 127.42 125.031C105.538 125.217 83.656 125.404 61.6839 125.404C50.6979 125.404 39.8019 125.31 28.8158 125.124L12.4268 124.844C9.72535 124.751 6.93381 124.844 4.23233 124.751H2.16119C1.80099 124.751 1.44079 124.751 1.08059 124.658C0.720396 124.564 0.450248 124.285 0.270149 124.005C0.0900495 123.725 0 123.352 0 122.979C0 122.606 0 122.233 0.0900495 121.86C0.360198 121.021 0.990545 120.555 1.71094 120.555ZM1.71094 120.648C1.08059 120.648 0.450248 121.114 0.180099 121.767C0.0900495 122.047 0.0900495 122.42 0.0900495 122.793C0.0900495 123.166 0.180099 123.445 0.360198 123.725C0.540297 124.005 0.810446 124.191 1.08059 124.378C1.35074 124.471 1.71094 124.471 2.07114 124.471H4.14228C6.84376 124.471 9.6353 124.471 12.3368 124.378L28.7258 124.098C39.7118 123.912 50.6078 123.818 61.5939 123.818C83.4759 123.725 105.358 123.912 127.33 124.191C127.87 124.191 128.411 123.818 128.591 123.259C128.591 123.166 128.681 122.979 128.681 122.886V122.326C128.681 122.047 128.591 121.767 128.501 121.487C128.321 121.207 128.14 121.021 127.87 120.928C127.6 120.834 127.33 120.834 126.97 120.834H124.899L116.704 120.741C111.211 120.741 105.718 120.648 100.315 120.741C89.3291 120.741 78.4331 121.021 67.4471 121.114C56.4611 121.207 45.5651 121.114 34.579 120.928L18.19 120.648H1.71094Z" fill="#111827"/>
<path d="M103.467 120.555C105.988 120.555 108.51 120.555 110.941 120.275C113.462 120.089 115.894 119.716 118.325 119.25C123.188 118.317 127.87 116.359 132.013 113.561C134.084 112.162 136.155 110.67 138.316 109.365C140.477 108.059 142.909 106.94 145.43 106.381C146.691 106.101 147.951 106.008 149.212 105.915H152.994C155.516 105.915 158.037 105.915 160.558 106.008L175.597 106.194C180.639 106.288 185.592 106.288 190.635 106.288C191.896 106.288 193.156 106.194 194.417 106.567C195.678 106.94 196.848 107.593 197.749 108.619C198.649 109.551 199.28 110.764 199.64 112.069C199.82 112.722 199.82 113.375 199.82 114.027V115.986L200 131.559H199.009V131.465H200C200 133.89 198.829 136.221 197.028 137.62C196.128 138.366 195.047 138.832 193.877 139.112C193.336 139.205 192.706 139.299 192.166 139.299H190.545L177.668 139.392C169.113 139.485 160.468 139.392 151.914 139.392C149.752 139.392 147.501 139.299 145.34 138.832C143.179 138.366 141.108 137.527 139.127 136.408C135.254 134.17 132.013 131.372 128.14 129.414C124.358 127.362 120.216 126.15 115.984 125.497C111.751 124.845 107.429 124.565 103.197 124.658C103.197 124.658 103.107 124.658 103.107 124.565C103.107 124.565 103.107 124.472 103.197 124.472C107.519 124.285 111.841 124.285 116.074 124.845C120.396 125.404 124.629 126.523 128.591 128.481C132.553 130.346 135.975 133.237 139.667 135.289C143.359 137.434 147.591 138.086 151.824 137.993C160.378 137.993 169.023 137.9 177.578 137.993L190.455 138.086H192.076C192.616 138.086 193.066 138.086 193.606 137.993C194.597 137.807 195.498 137.34 196.308 136.781C197.929 135.568 198.919 133.61 199.009 131.559H200V131.652H199.009L199.19 116.079V114.121C199.19 113.468 199.19 112.908 199.009 112.256C198.739 111.043 198.109 109.924 197.299 108.992C196.488 108.059 195.407 107.407 194.237 107.034C193.066 106.661 191.805 106.754 190.545 106.754C185.502 106.754 180.549 106.754 175.507 106.847L160.468 107.034C157.947 107.034 155.425 107.127 152.904 107.127C151.643 107.127 150.383 107.127 149.212 107.22C147.951 107.313 146.781 107.407 145.61 107.686C143.179 108.153 140.928 109.178 138.766 110.391C136.605 111.696 134.534 113.188 132.463 114.587C128.14 117.384 123.278 119.25 118.325 120.089C113.372 120.928 108.24 121.021 103.287 120.742C103.467 120.648 103.377 120.648 103.467 120.555ZM36.9203 66.003C36.8303 65.3502 37.6407 65.0704 38.0909 64.8839C39.6218 64.1379 41.3327 63.6717 42.5934 62.3661C43.584 61.3404 44.2143 59.3821 43.0437 58.1698C42.0531 57.1441 39.982 57.3306 38.7213 57.7968C36.9203 58.3563 35.5696 59.6619 34.579 61.3404C33.9487 62.4594 33.5885 63.5784 33.8586 64.7907C33.2283 65.4434 32.5979 66.003 31.8775 66.5625C31.3372 66.9355 30.1666 66.8422 30.5268 65.4434C30.7069 64.6974 30.7969 63.9514 30.977 63.2054C31.7875 59.1956 32.5079 55.279 33.3183 51.2692C33.4084 50.803 33.5885 50.3367 33.5885 49.8705C33.5885 49.5907 33.5885 49.1244 33.4984 48.9379C33.3183 48.7514 32.4178 48.8447 32.1477 48.9379C30.977 49.3109 30.5268 51.3625 30.2566 52.3882C29.7163 54.3465 29.3561 56.5846 29.3561 58.5428C29.2661 58.5428 28.4556 57.4238 26.4746 57.5171C25.2139 57.6103 24.0432 58.0766 23.0527 58.9158C21.2517 60.4079 20.2611 62.6459 20.6213 65.0704C20.9815 67.3085 23.0527 68.614 25.2139 68.1477C26.2945 67.9612 26.9248 67.3085 27.7353 66.5625C28.0955 66.1895 28.0955 66.1895 28.3656 66.5625C28.5457 66.749 28.7258 67.0287 28.9959 67.2152C29.3561 67.5882 29.7163 67.9612 30.2566 68.0545C31.9676 68.4275 33.5885 67.3085 34.3989 65.8164C34.489 65.9097 34.489 66.003 34.579 66.0962C35.3895 67.4017 36.6502 68.3342 38.0909 68.3342C38.9914 68.3342 40.072 68.4275 40.9725 68.1477C42.6835 67.5882 44.0342 66.376 45.2049 65.0704V64.0447C43.4039 65.5367 41.783 67.2152 39.4417 67.3085C38.5412 67.2152 37.1004 66.9355 36.9203 66.003ZM28.3656 61.9931C28.0054 64.5109 24.6736 68.241 23.5029 65.6299C23.0527 64.6042 23.3228 63.2987 23.683 62.2729C24.1333 60.9674 25.6641 57.7036 27.5552 58.7293C28.7258 59.2888 28.5457 60.8741 28.3656 61.9931ZM39.8919 58.6361C40.7924 58.5428 41.1526 59.0091 41.1526 59.8484C41.1526 62.0864 38.9014 63.2054 37.1905 63.9514C36.1099 61.3404 38.9014 58.8226 39.8919 58.6361ZM69.6983 55.3723C71.7695 53.787 73.3904 51.2692 73.3904 48.5649C73.3904 47.2594 72.76 46.1404 71.7695 45.4876C69.3381 43.9956 66.1864 45.7674 64.2053 47.3527L63.3949 48.1919C63.0347 48.5649 62.9446 48.7514 62.5844 48.6582C61.9541 48.4717 61.5038 48.0987 60.7834 48.0054C59.6128 47.9122 58.5322 48.4717 57.8118 49.4974C57.2715 50.3367 56.6412 51.4557 56.6412 52.3882C56.6412 52.668 56.4611 54.16 57.1814 53.6005C57.4516 53.414 57.5416 52.1085 57.7217 51.7355C57.9018 51.176 58.0819 50.7097 58.4421 50.2435C58.8023 49.7772 59.3426 49.2177 59.973 49.3109C60.5133 49.4042 60.9635 49.9637 61.0536 50.5232C61.2337 51.176 60.6934 51.8287 60.4232 52.3882C59.7028 53.787 59.0725 55.1858 58.4421 56.5846C57.3615 58.9158 56.1009 61.5269 56.0108 64.1379C55.9208 66.1895 57.4516 69.4533 59.6128 67.4017C61.4138 65.63 62.3143 62.6459 62.9446 60.2214C63.665 57.6103 64.3854 54.7195 63.8451 52.0152C63.665 50.8962 63.1247 49.8705 63.9352 48.8447C64.7456 47.8189 66.0964 47.0729 67.357 46.6067C68.5277 46.1404 69.5182 46.6067 70.3287 47.5392C70.959 48.1919 70.869 48.8447 70.869 49.684C70.869 51.922 70.3287 53.6938 68.3476 54.8128C67.357 55.3723 65.8262 55.652 65.0158 56.5846C64.6556 56.9576 64.7456 57.3306 65.1959 57.7036C65.6461 57.9833 65.9162 57.8901 66.3665 57.7036C67.1769 57.3306 68.1675 56.3981 69.068 57.0508C70.1486 57.8901 70.1486 59.6619 70.0585 60.8741C69.8784 63.1122 68.5277 66.5625 66.0063 66.8422C65.0158 66.9355 63.3949 66.5625 63.3048 65.2569C63.2148 64.6974 63.575 64.1379 63.9352 63.7649C64.2053 63.3919 64.8357 63.1122 64.8357 62.6459C64.8357 62.2729 64.6556 62.2729 64.2053 62.3661C63.7551 62.4594 63.665 62.7392 63.3949 63.2054C62.7645 64.3244 62.3143 65.6299 63.2148 66.749C65.0158 69.0802 68.1675 67.9612 69.9685 66.376C74.2008 62.6459 73.3904 58.6361 72.9401 57.7968C72.0396 56.8643 70.6889 56.0251 69.6983 55.3723ZM60.6934 59.1956C60.5133 60.5011 60.2431 61.8999 59.8829 63.2054C59.6128 64.2312 59.3426 65.5367 58.6222 66.4692C57.9919 67.3085 57.2715 66.9355 57.1814 65.9097C57.0013 64.3244 57.3615 62.6459 57.8118 61.1539C58.5322 58.4496 59.5227 55.652 61.0536 53.3208C61.0536 54.3465 60.8735 58.3563 60.6934 59.1956ZM167.582 52.295C167.582 50.057 164.701 50.3367 164.43 52.295C164.07 54.3465 167.582 54.3465 167.582 52.295Z" fill="#111827"/>
<path d="M174.426 67.2152C173.706 67.2152 172.265 66.9355 172.085 66.003C171.995 65.3502 172.805 65.0704 173.255 64.8839C174.786 64.1379 176.497 63.6717 177.758 62.3661C178.748 61.3404 179.379 59.3821 178.208 58.1698C177.217 57.1441 175.146 57.3306 173.886 57.7968C172.085 58.3563 170.734 59.6619 169.743 61.3404C169.203 62.1796 168.933 63.1122 168.933 64.0447C168.303 64.7907 167.672 65.4434 167.042 66.1895C166.682 66.5625 166.141 67.2152 165.601 67.0287C164.611 66.8422 165.151 65.0704 165.241 64.4177C165.511 63.0189 165.781 61.5269 166.051 60.1281C166.141 59.4754 166.502 58.1698 165.871 57.7036C164.971 57.0508 164.07 58.1698 163.71 58.8226C163.08 59.9416 162.81 61.2471 162.539 62.5526C162.539 62.7392 162.449 62.9257 162.449 63.1122C161.999 63.0189 161.459 62.9257 161.189 62.5526C160.828 62.0864 161.099 61.4336 161.279 60.9674C161.549 60.2214 162.9 58.2631 161.909 57.6103C160.918 56.9576 159.478 58.0766 158.847 58.8226C158.037 59.9416 157.407 61.2471 156.326 62.1796C156.326 61.5269 156.416 61.0606 156.596 60.5011C156.776 60.0349 157.226 59.1023 157.136 58.5428C157.046 58.1698 156.416 57.6103 156.146 57.5171C155.786 57.4238 155.245 57.7036 154.975 57.9833C154.255 58.6361 154.075 59.8484 153.895 60.7809C153.715 61.9931 153.534 63.2987 153.354 64.5109C151.823 65.8164 150.293 67.2152 148.131 67.2152C147.411 67.2152 145.97 66.9355 145.79 66.003C145.7 65.3502 146.511 65.0704 146.961 64.8839C148.492 64.1379 150.203 63.6717 151.463 62.3661C152.454 61.3404 153.084 59.3821 151.914 58.1698C150.923 57.1441 148.852 57.3306 147.591 57.7968C145.79 58.3563 144.439 59.6619 143.449 61.3404C142.728 62.6459 142.368 64.0447 142.909 65.4434C142.728 65.6299 142.548 66.003 142.368 66.1895C141.918 66.749 141.288 67.3085 140.477 67.3085C140.477 66.749 140.477 66.2827 140.567 65.7232C140.837 64.5109 141.198 63.3919 141.468 62.1796C141.648 61.4336 142.098 60.4079 141.198 60.0349C140.928 59.9416 140.297 56.8643 136.335 57.7036C135.254 57.9833 134.264 58.9158 133.453 59.7551C132.373 60.9674 131.562 62.6459 131.472 64.3244C131.112 64.8839 130.752 65.5367 130.302 66.003C129.941 66.4692 129.311 67.0287 128.681 67.2152C128.501 67.2152 127.96 67.3085 127.87 67.2152C127.69 67.0287 127.87 66.2827 127.96 66.003C128.05 65.3502 128.321 64.7907 128.501 64.1379C128.771 63.0189 129.131 61.8066 129.131 60.9674C129.221 60.2214 129.221 59.6619 128.771 59.0091C128.14 57.9833 127.24 57.3306 126.069 57.7036C123.908 58.4496 122.197 61.3404 121.297 63.3919C120.846 61.7134 121.837 60.1281 121.927 58.4496C121.927 57.7036 121.387 57.3306 120.756 57.6103C120.216 57.7968 119.856 58.3563 119.676 58.8226C118.865 60.5011 118.595 62.5526 118.415 64.4177C117.965 64.8839 117.605 65.3502 117.154 65.8165C116.524 66.376 115.714 66.8422 114.903 66.9355C114.903 65.0704 114.993 63.4852 115.353 61.7134C115.624 60.6876 116.074 59.4753 116.074 58.3563C115.984 56.6778 114.093 58.2631 113.462 58.8226C111.481 55.7453 107.789 58.3563 106.258 60.4079C105.448 61.4336 104.908 63.0189 104.998 64.4177C104.367 65.1637 103.827 65.9097 103.017 66.4692C102.116 67.2152 101.396 67.2152 101.036 66.003C100.135 63.1122 101.666 60.3146 103.017 57.8901C104.277 55.5588 105.538 53.2275 106.078 50.5232C106.258 49.3109 106.258 48.0987 106.168 46.8864C106.168 45.0214 104.187 44.3686 102.927 45.6741C101.306 47.2594 100.495 49.8705 99.8649 52.0152C99.1445 54.533 98.5142 57.2373 98.244 59.8484C98.154 61.1539 98.154 62.4594 98.154 63.7649V63.9514C97.4336 65.3502 95.9928 67.4017 94.9122 66.9355C93.7415 66.0962 95.9928 60.0349 96.1729 59.5686C96.5331 58.8226 95.6326 56.9576 94.1017 58.2631C93.3813 58.8226 93.2012 59.8484 92.9311 60.5944C92.2107 62.5527 91.4903 64.4177 90.0495 65.9097C89.5993 66.376 89.149 67.0287 88.5187 67.122C88.2485 67.122 87.8883 67.122 87.7983 67.0287C87.1679 66.4692 88.2485 62.0864 88.5187 60.7809C88.6988 60.0349 89.149 58.6361 89.059 58.0766C88.9689 57.7036 88.6988 57.7036 88.3386 57.7036C86.8978 57.7036 86.2674 59.8484 85.9072 60.9674C85.6371 61.8999 85.457 63.0189 85.367 64.1379C84.9167 64.6042 84.4665 65.3502 84.0162 65.7232C83.1157 66.376 82.2152 67.0287 81.0446 67.0287C82.3953 65.6299 83.656 64.0447 83.656 61.8999C83.656 60.2214 82.9356 58.6361 81.4948 57.8901C78.6132 56.3981 74.8312 58.0766 73.6605 60.8741C72.67 63.2054 73.9306 66.003 74.2908 66.4692C75.1913 67.495 76.0018 68.1477 77.3525 68.1477H79.964C80.6844 68.1477 81.4948 68.241 82.2152 67.9612C83.656 67.5882 84.6465 66.4692 85.547 65.3502C85.547 65.7232 85.6371 66.0962 85.7271 66.376C86.1774 67.9612 87.6182 68.4275 89.059 67.868C90.5898 67.3085 92.0306 65.8164 92.8411 64.4177C92.8411 65.5367 92.9311 66.1895 93.1112 66.8422C93.3813 67.6815 93.9217 68.241 94.8222 68.3342C95.8127 68.4275 96.6231 67.868 97.3435 67.2152C97.7938 66.8422 98.3341 66.2827 98.6943 65.6299C98.8744 66.6557 99.3246 67.495 100.405 67.868C102.476 68.614 104.187 67.122 105.538 65.5367C105.808 66.4692 106.348 67.3085 107.339 67.7747C108.51 68.4275 110.221 68.1477 111.211 67.3085C111.571 67.0287 112.022 66.376 112.292 66.0962C112.652 65.6299 113.012 66.4692 113.192 66.8422C114.723 69.4533 117.335 67.6815 118.685 65.5367C118.595 66.8422 118.595 68.7072 119.946 68.0545C121.387 67.4017 122.017 64.9772 122.647 63.6717C123.368 62.0864 124.088 59.9416 125.619 58.9158C126.069 58.6361 127.15 58.2631 127.42 59.1023C127.51 59.5686 126.88 60.7809 126.7 61.2471C126.249 62.8324 125.619 64.8839 126.159 66.5625C126.7 68.3342 128.231 68.8005 129.851 67.9612C130.752 67.495 131.562 66.749 132.013 65.8165C132.283 66.749 133.003 67.5882 133.904 67.9612C135.074 68.4275 136.155 68.0545 137.235 67.5882C137.596 67.4017 138.046 67.0287 138.226 67.4017C138.316 67.5882 138.316 67.868 138.316 68.0545C138.226 68.4275 138.046 68.7072 137.866 68.987C137.055 70.0128 135.975 70.7588 134.984 71.5048C133.543 72.6238 132.913 74.1158 133.093 75.9809C133.183 77.1931 134.444 77.7526 135.525 77.5661C136.515 77.3796 137.416 76.5404 137.956 75.7944C139.397 73.9293 139.487 71.598 140.477 69.4533C140.837 68.7072 141.288 68.241 141.918 67.7747C142.638 67.2152 143.089 66.749 143.449 66.0962C144.259 67.4017 145.52 68.3342 146.961 68.3342C147.861 68.3342 148.942 68.4275 149.842 68.1477C151.103 67.7747 152.274 66.8422 153.264 65.9097C153.174 66.1895 153.174 66.5625 153.174 66.9355C153.174 67.4017 152.994 68.1477 153.354 68.3342C153.624 68.4275 155.155 68.4275 155.425 68.3342C155.786 68.1477 156.056 66.8422 156.146 66.4692C156.416 65.8165 156.596 65.1637 156.866 64.5109C157.407 63.2987 158.037 62.0864 158.757 60.9674C159.298 61.8999 159.748 63.1122 160.648 63.6717C161.369 64.1379 162.089 63.9514 162.719 63.5784C162.539 65.2569 162.629 67.0287 164.07 67.9612C165.151 68.7072 166.502 68.241 167.492 67.5882C168.212 67.122 169.023 66.2827 169.473 65.3502C169.563 65.6299 169.653 65.8165 169.833 66.0962C170.644 67.4017 171.905 68.3342 173.345 68.3342C174.246 68.3342 175.326 68.4275 176.227 68.1477C177.938 67.5882 179.289 66.376 180.459 65.0704V64.0447C178.388 65.3502 176.857 67.122 174.426 67.2152ZM172.265 62.5526C172.355 61.8066 172.715 61.2471 173.075 60.5944C173.525 59.7551 173.976 58.9158 174.966 58.7293C175.867 58.6361 176.227 59.1023 176.227 59.9416C176.227 62.1796 173.976 63.2987 172.265 64.0447V62.5526ZM146.06 62.5526C146.15 61.8066 146.511 61.2471 146.871 60.5944C147.321 59.7551 147.771 58.9158 148.762 58.7293C149.662 58.6361 150.023 59.1023 150.023 59.9416C150.023 62.1796 147.771 63.2987 146.06 64.0447C146.06 63.4852 145.97 63.0189 146.06 62.5526ZM101.936 55.8386C102.116 54.3465 102.386 52.7612 102.656 51.2692C102.927 49.9637 103.197 48.6582 103.647 47.4459C103.737 47.0729 103.917 46.4202 104.277 46.4202C105.898 46.1404 104.728 51.2692 104.547 51.6422C104.277 52.4815 103.917 53.3208 103.557 54.2533C102.927 55.8385 102.206 57.4238 101.486 59.0091C101.576 57.9833 101.756 56.8643 101.936 55.8386ZM77.7127 67.0287C75.7317 66.9355 75.7316 63.5784 76.0918 62.1796C76.452 60.5944 78.163 57.7036 80.1441 58.9158C81.3147 59.6619 81.1346 61.0606 81.1346 62.2729C81.1346 64.1379 79.8739 67.0287 77.7127 67.0287ZM110.941 66.0962C110.581 66.5625 109.86 67.122 109.23 67.0287C108.42 66.9355 107.879 66.003 108.059 65.2569C108.42 63.3919 108.96 61.2471 110.131 59.7551C111.121 58.5428 113.192 58.5428 113.192 60.5011C113.102 62.4594 112.292 64.6974 110.941 66.0962ZM137.686 70.9453C137.235 72.5305 136.965 74.3956 135.975 75.7944C135.344 76.6336 134.264 76.9134 133.994 75.6078C133.724 73.9293 134.984 72.6238 135.975 71.598C136.335 71.225 136.875 70.2925 137.416 70.3858C137.866 70.3858 137.686 70.5723 137.686 70.9453ZM137.416 66.0962C136.965 66.5625 136.335 67.0287 135.615 67.0287C134.624 67.122 134.624 66.5625 134.624 65.7232C134.624 63.6717 135.164 61.4336 136.425 59.8484C136.785 59.2888 137.506 58.6361 138.226 58.7293C138.946 58.8226 139.577 59.8484 139.577 60.5944C139.577 62.3661 138.676 64.6974 137.416 66.0962ZM80.7744 40.3588C83.9261 40.4521 86.8077 38.96 88.1585 35.8827C88.7888 34.3907 89.149 32.4324 88.1585 31.1269C87.258 29.9147 85.547 29.8214 84.1963 30.3809C82.8456 30.9404 81.765 32.2459 81.5849 33.738C81.3147 35.23 81.765 37.0018 83.2958 37.3748C83.2958 35.23 83.2057 32.992 85.1868 31.5932C86.4475 30.6607 87.7983 31.4999 87.8883 32.992C88.0684 34.5772 87.348 36.0692 86.3575 37.1883C84.7366 39.1465 81.855 40.1723 79.5137 38.96C76.9023 37.6545 77.1724 34.2042 78.0729 31.8729C78.5232 30.5674 79.2436 29.0754 80.3242 28.2361C80.9545 27.7699 81.6749 27.6766 82.3953 27.6766C83.1157 27.6766 84.1062 27.8631 84.7366 27.3969C85.1868 27.1171 85.547 26.2778 85.0067 25.9048C84.6465 25.6251 83.9261 25.8116 83.4759 25.8116C82.3053 25.9048 81.0446 25.8116 80.8645 24.4128C80.7744 23.7601 80.7744 23.1073 80.8645 22.4545C80.9545 19.9368 83.4759 17.1392 86.0873 18.3515C87.1679 18.911 87.348 20.3098 86.9878 21.4288C86.8077 21.895 86.5376 22.268 86.0873 22.5478C85.6371 22.7343 84.8266 22.9208 84.5565 23.3871C83.9262 24.4128 86.7177 23.6668 87.1679 23.3871C88.2485 22.7343 89.059 21.7085 89.059 20.403C89.059 18.3515 87.348 17.2325 85.547 17.2325C84.1963 17.2325 82.8456 17.1392 81.5849 17.792C80.054 18.6312 78.253 20.403 78.253 22.268C78.253 24.1331 78.5232 25.5318 80.3242 26.3711C78.7033 27.4901 76.9023 28.5159 75.7316 30.1944C74.651 31.6864 74.2909 33.6447 74.561 35.4165C74.9212 38.7735 77.8028 40.2656 80.7744 40.3588Z" fill="#111827"/>
<path d="M90.6799 39.8926C91.6704 40.4521 92.8411 40.3588 93.9217 40.3588C95.8127 40.2656 97.4336 38.7735 98.4241 37.1883C98.6042 37.9343 98.9644 38.4938 99.0545 38.6803C99.955 39.7061 100.765 40.3588 102.116 40.3588H104.728C105.448 40.3588 106.258 40.4521 106.979 40.1723C108.6 39.7061 109.59 38.4005 110.671 37.1883C110.761 38.4938 111.211 39.6128 112.472 40.1723C114.813 41.0116 116.794 38.8668 118.055 37.095C118.145 37.468 118.325 37.7478 118.505 38.1208C119.316 39.4263 120.576 40.3588 122.017 40.3588C122.918 40.3588 123.998 40.4521 124.899 40.1723C126.61 39.6128 127.96 38.4005 129.131 37.095V36.0692C127.33 37.5613 125.709 39.2398 123.368 39.333C122.647 39.333 121.207 39.0533 121.027 38.1208C120.936 37.468 121.747 37.1883 122.197 37.0018C123.728 36.2557 125.439 35.7895 126.7 34.484C127.69 33.4582 128.321 31.4999 127.15 30.2877C126.159 29.2619 124.088 29.4484 122.828 29.9146C121.027 30.4742 119.676 31.7797 118.685 33.4582C118.145 34.2975 117.875 35.23 117.875 36.0692C116.974 36.9085 116.254 37.9343 115.353 38.6803C114.453 39.4263 113.733 39.4263 113.372 38.214C112.472 35.3232 114.003 32.5257 115.353 30.1012C116.614 27.7699 118.235 24.9723 118.505 22.268C118.685 20.403 118.685 15.3674 115.263 17.792C113.462 19.0975 112.832 21.9883 112.202 24.1331C111.481 26.6509 110.851 29.3551 110.581 31.9662C110.491 33.2717 110.491 34.5772 110.491 35.8827C109.86 36.4422 109.41 37.2815 108.78 37.7478C107.879 38.4005 106.979 39.0533 105.808 39.0533C107.159 37.6545 108.42 36.0692 108.42 33.9245C108.42 32.2459 107.699 30.6607 106.258 29.9146C103.377 28.4226 99.5948 30.1012 98.4241 32.8987C97.9739 33.9245 97.9739 35.0435 98.154 35.976C96.8933 37.0018 95.9928 38.4938 94.4619 39.0533C93.6515 39.4263 92.5709 39.4263 91.9406 38.587C91.3102 37.6545 91.4003 36.349 91.4903 35.23C91.5804 34.2042 91.8505 33.1785 92.3908 32.3392C92.751 31.6864 93.3813 30.5674 94.1017 30.3809C94.1918 30.3809 94.8221 30.2877 94.8221 30.3809C94.9122 30.4742 94.8221 31.4999 94.8221 31.6864C94.9122 32.6189 95.3624 33.1785 96.353 32.992C97.2535 32.8987 98.0639 31.9662 97.7938 30.9404C97.5236 30.1944 96.6231 29.4484 95.8127 29.2619C94.8221 29.0754 93.2913 29.1686 92.3908 29.6349C88.9689 31.5932 86.6276 37.468 90.6799 39.8926ZM121.297 34.6705C121.387 33.9245 121.747 33.365 122.107 32.7122C122.557 31.8729 123.008 31.0337 123.998 30.8472C124.899 30.7539 125.259 31.2202 125.259 32.0594C125.259 34.2975 123.008 35.4165 121.297 36.1625V34.6705ZM114.183 28.0496C114.363 26.5576 114.633 24.9723 114.903 23.4803C115.173 22.1748 115.263 20.8693 115.894 19.657C116.884 17.792 117.695 20.5895 116.794 23.8533C116.524 24.6926 116.164 25.5318 115.804 26.4643C115.173 28.0496 114.453 29.6349 113.733 31.2202C113.823 30.1012 114.003 29.0754 114.183 28.0496ZM100.946 34.2975C101.306 32.7122 103.017 29.8214 104.998 31.0337C106.168 31.7797 105.988 33.1785 105.988 34.3907C105.988 36.2558 104.728 39.1465 102.656 39.0533C100.585 39.0533 100.675 35.6962 100.946 34.2975ZM36.4701 84.0005C36.29 84.0005 35.2994 84.0937 35.2094 84.0005C35.2094 84.0005 36.38 80.2704 35.2994 79.5244C34.3989 78.8717 33.8586 80.1772 33.6785 80.8299C33.4084 81.7624 33.3183 82.7882 32.5979 83.5342C32.3278 83.814 31.9676 84.0005 31.6074 84.0005C31.2472 84.0937 31.2472 83.9072 31.2472 84.2802V84.7465C31.4273 85.2128 32.2377 85.1195 32.3278 85.679C32.4178 86.1453 31.9676 87.0778 31.8775 87.544C31.6974 88.4765 31.4273 89.5023 31.3372 90.4348C31.2472 90.9011 31.2472 91.3673 31.2472 91.8336C29.4462 93.3256 27.8253 95.0042 25.484 95.0974C24.7636 95.0974 23.3228 94.8176 23.1427 93.8851C23.0527 93.2324 23.8631 92.9526 24.3134 92.7661C25.8442 92.0201 27.5552 91.5538 28.8158 90.2483C29.8064 89.2226 30.4367 87.2643 29.2661 86.052C28.2755 85.0262 26.2044 85.2127 24.9437 85.679C23.1427 86.2385 21.792 87.544 20.8014 89.2226C19.9009 90.7146 19.5407 92.3931 20.5313 93.9784C21.3417 95.2839 22.6024 96.2164 24.0432 96.2164C24.9437 96.2164 26.0243 96.3097 26.9248 96.0299C28.5457 95.5637 29.9865 94.2581 31.1571 92.9526V93.7919C31.2472 96.1232 33.4984 96.6827 35.1193 95.4704C35.9298 94.9109 37.1004 93.8851 37.2805 92.9526C37.3706 92.4864 37.4606 91.7403 36.9203 91.8336C36.4701 91.9268 36.29 92.5796 36.1099 92.8594C35.8397 93.2324 35.4795 93.6986 35.1193 94.0716C34.579 94.6311 33.5885 95.2839 33.3183 94.1649C33.0482 93.1391 33.4084 91.6471 33.5885 90.6213C33.7686 89.409 34.3989 85.3993 34.9392 85.2128C35.3895 85.1195 36.9203 85.0262 37.4606 84.933C37.4606 84.7465 37.5506 84.187 37.4606 84.0937C37.4606 83.9072 36.6502 84.0005 36.4701 84.0005ZM23.3228 90.3416C23.4129 89.5956 23.7731 89.0361 24.1333 88.3833C24.5835 87.544 25.0338 86.7048 26.0243 86.5183C26.9248 86.425 27.285 86.8913 27.285 87.7305C27.285 89.9686 25.0338 91.0876 23.3228 91.8336V90.3416ZM64.3854 93.7919C64.2954 93.1391 65.1058 92.8594 65.5561 92.6729C67.0869 91.9268 68.7978 91.4606 70.0585 90.1551C71.0491 89.1293 71.6794 87.171 70.5088 85.9588C69.5182 84.933 67.4471 85.1195 66.1864 85.5858C64.3854 86.1453 63.0347 87.4508 62.0441 89.1293C61.3237 90.3416 61.0536 91.5538 61.3237 92.7661C60.6934 93.4189 60.1531 93.8851 59.4327 94.4446C58.8924 94.8176 57.7217 94.7244 58.0819 93.3256C58.262 92.5796 58.3521 91.8336 58.5322 91.0876C59.3426 87.0778 60.063 83.1612 60.8735 79.1514C60.9635 78.6851 61.1436 78.2189 61.1436 77.7526C61.1436 77.4729 61.1436 77.0066 61.0536 76.8201C60.8735 76.6336 59.973 76.7269 59.7028 76.8201C58.5322 77.1931 58.0819 79.2447 57.8118 80.2704C57.2715 82.2287 56.9113 84.4667 56.9113 86.425C56.8212 86.425 56.0108 85.306 54.0297 85.3992C52.769 85.4925 51.5984 85.9588 50.6078 86.798C48.8068 88.29 47.8163 90.5281 48.1765 92.9526C48.5367 95.1906 50.6078 96.4962 52.769 96.0299C53.8496 95.8434 54.48 95.1907 55.2904 94.4446C55.6506 94.0716 55.6506 94.0716 55.9207 94.4446C56.1008 94.6311 56.2809 94.9109 56.5511 95.0974C56.9113 95.4704 57.2715 95.8434 57.8118 95.9367C59.4327 96.3097 61.0536 95.1906 61.864 93.7919V93.8851C62.6745 95.1906 63.9352 96.1232 65.3759 96.1232C66.2764 96.1232 67.357 96.2164 68.2575 95.9367C69.9685 95.3772 71.3192 94.1649 72.4899 92.8594V91.8336C70.6889 93.3256 69.068 95.0042 66.7267 95.0974C66.0063 95.0042 64.4755 94.7244 64.3854 93.7919ZM64.5655 90.3416C64.6556 89.5956 65.0157 89.0361 65.3759 88.3833C65.8262 87.544 66.2764 86.7048 67.267 86.5183C68.1675 86.425 68.5277 86.8913 68.5277 87.7305C68.5277 89.9686 66.2764 91.0876 64.5655 91.8336V90.3416ZM56.0108 89.9686C55.6506 92.4864 52.3188 96.2164 51.1481 93.6054C50.6979 92.5796 50.968 91.2741 51.3282 90.2483C51.7785 88.9428 53.3093 85.679 55.2004 86.7048C56.2809 87.2643 56.1008 88.8496 56.0108 89.9686ZM92.841 73.1833C91.7605 72.7171 85.1868 71.1318 81.4048 76.9134C80.7744 77.8459 80.5943 78.6851 80.5943 79.8042C80.5943 81.1097 80.9545 81.8557 81.9451 82.695C83.2958 83.6275 84.7366 83.7207 86.0873 82.6017C86.5376 82.2287 87.1679 81.6692 87.0779 81.0164C86.9878 80.6434 86.9878 80.5502 86.5376 80.7367C86.0873 80.8299 85.8172 81.2029 85.2769 81.2029C84.5565 81.2029 83.9261 81.1097 83.3858 80.6434C82.3053 79.6177 82.5754 77.9391 83.2958 76.7269C85.0067 74.0226 89.059 72.8103 91.8505 74.3023C97.2535 77.1931 96.0828 84.4667 95.0923 86.2385C94.4619 87.2643 92.9311 88.5698 91.6704 87.544C91.1301 87.0778 91.1301 86.2385 91.5804 85.7723C92.0306 85.306 92.0306 85.3993 92.0306 84.7465C90.4097 84.7465 90.0495 86.8913 90.95 88.0103C91.6704 88.8495 92.5709 88.8496 93.5614 88.8496C94.8221 88.8496 95.7226 87.917 96.443 86.8913C97.4336 85.7723 101.126 76.9134 92.841 73.1833Z" fill="#111827"/>
<path d="M91.4003 77.5661C91.4903 77.2864 91.9406 75.9809 92.2107 75.9809V75.3281C90.4998 75.7011 89.5993 77.7526 89.059 79.2446C88.3386 81.0164 87.9784 82.8815 87.6182 84.8397C87.258 86.7048 86.8978 88.5698 86.4475 90.4348C86.2674 91.3673 86.0873 92.2066 85.8172 93.0459C85.6371 93.7919 85.2769 94.5379 85.1868 95.1906C85.0068 96.3097 86.5376 96.1232 87.258 96.0299C88.3386 95.9367 88.6087 94.5379 88.8789 93.6054C89.5993 90.9943 89.9595 88.1968 89.9595 85.4925C89.9595 83.7207 90.1396 81.8557 90.4998 80.0839C90.7699 79.2447 91.0401 78.4054 91.4003 77.5661ZM121.117 80.0839C121.117 77.8459 118.235 78.1256 117.965 80.0839C117.605 82.2287 121.117 82.2287 121.117 80.0839ZM164.43 80.0839C164.43 77.8459 161.549 78.1256 161.279 80.0839C160.919 82.2287 164.43 82.2287 164.43 80.0839Z" fill="#111827"/>
<path d="M168.753 93.7919C168.663 93.1391 169.473 92.8594 169.923 92.6729C171.454 91.9268 173.165 91.4606 174.426 90.1551C175.416 89.2225 176.047 87.3575 175.056 86.1453C174.066 84.8397 171.634 85.2127 170.374 85.679C168.663 86.3318 167.312 87.6373 166.502 89.2226C165.961 90.1551 165.691 91.0876 165.781 92.0201C165.241 92.6729 164.701 93.3256 164.07 93.8851C163.71 94.2581 163.17 94.9109 162.629 94.7244C161.639 94.5379 162.179 92.7661 162.269 92.1133C162.539 90.7146 162.81 89.2226 163.08 87.8238C163.17 87.171 163.53 85.8655 162.9 85.3992C161.999 84.7465 161.099 85.8655 160.738 86.5183C160.108 87.6373 159.838 88.9428 159.568 90.2483C159.568 90.4348 159.478 90.6213 159.478 90.8078C159.027 90.7146 158.487 90.6213 158.217 90.2483C157.857 89.7821 158.127 89.1293 158.307 88.663C158.577 87.917 159.928 85.9588 158.937 85.306C157.947 84.6532 156.506 85.7723 155.876 86.5183C155.065 87.6373 154.435 88.9428 153.354 89.8753C153.354 89.2226 153.444 88.7563 153.624 88.1968C153.805 87.7305 154.255 86.798 154.165 86.2385C154.075 85.8655 153.444 85.306 153.174 85.2128C152.814 85.1195 152.274 85.3993 152.004 85.679C151.283 86.3318 151.103 87.544 150.923 88.4765L150.383 92.1133C148.852 93.4189 147.321 94.9109 145.16 94.9109C144.439 94.9109 142.999 94.6311 142.819 93.6986C142.728 93.0459 143.539 92.7661 143.989 92.5796C145.52 91.8336 147.231 91.3673 148.492 90.0618C149.482 89.036 150.113 87.0778 148.942 85.8655C147.951 84.8397 145.88 85.0262 144.62 85.4925C142.819 86.052 141.468 87.3575 140.477 89.036C139.757 90.3416 139.397 91.6471 139.847 92.9526C138.946 93.6986 138.226 94.0716 137.776 94.1649C138.136 92.7661 138.496 91.6471 137.776 90.3416C137.145 89.3158 135.975 88.4765 135.795 87.171C135.795 86.7048 135.975 85.679 135.705 85.3992C135.074 84.8397 134.624 85.8655 134.354 86.2385C133.633 87.4508 132.913 88.663 132.283 89.9686C131.923 90.6213 131.382 91.4606 131.292 92.2066V92.9526C130.302 93.7919 129.581 94.1649 129.041 94.2581C129.401 92.8594 129.761 91.7403 129.041 90.4348C128.411 89.4091 127.24 88.5698 127.06 87.2643C127.06 86.798 127.24 85.7722 126.97 85.4925C126.339 84.933 125.889 85.9588 125.619 86.3318C124.899 87.544 124.178 88.7563 123.548 90.0618C123.278 90.5281 122.918 91.0876 122.737 91.7403C122.017 92.4864 121.387 93.3256 120.666 94.0716C120.306 94.4446 119.766 95.0974 119.226 94.9109C118.235 94.7244 118.775 92.9526 118.865 92.2999C119.136 90.9011 119.406 89.4091 119.676 88.0103C119.766 87.3575 120.126 86.052 119.496 85.5858C118.595 84.933 117.695 86.052 117.335 86.7048C116.704 87.8238 116.434 89.1293 116.164 90.4348C116.074 90.9011 115.984 91.4606 115.894 92.0201C115.624 92.2066 115.443 92.6729 115.263 93.0459C114.993 93.4189 114.633 93.8851 114.273 94.2581C113.733 94.8176 112.742 95.4704 112.472 94.3514C112.202 93.3256 112.562 91.8336 112.742 90.8078C112.922 89.5956 113.552 85.5857 114.093 85.3992C114.543 85.306 116.074 85.2128 116.614 85.1195C116.614 84.933 116.704 84.3735 116.614 84.2802C116.524 84.187 115.714 84.2802 115.534 84.2802C115.353 84.2802 114.363 84.3735 114.273 84.2802C114.273 84.2802 115.443 80.5502 114.363 79.8042C113.462 79.1514 112.922 80.4569 112.742 81.1097C112.472 82.0422 112.382 83.068 111.661 83.814C111.391 84.0937 111.031 84.2802 110.671 84.2802C110.311 84.3735 110.311 84.187 110.311 84.56V85.0262C110.491 85.4925 111.301 85.3992 111.391 85.9588C111.481 86.425 111.031 87.3575 110.941 87.8238C110.761 88.7563 110.491 89.7821 110.401 90.7146C110.311 91.3673 110.311 91.9269 110.221 92.5796C109.86 93.0459 109.41 93.5121 108.96 93.8851C108.33 94.4446 107.519 94.9109 106.709 95.0042C106.709 93.1391 106.799 91.5538 107.159 89.7821C107.429 88.7563 107.879 87.544 107.879 86.425C107.789 84.7465 105.898 86.3318 105.268 86.8913C103.287 83.814 99.5948 86.425 98.0639 88.4765C96.5331 90.5281 95.9928 94.5379 98.6943 95.9367C99.8649 96.5894 101.576 96.3097 102.566 95.4704C102.927 95.1907 103.377 94.5379 103.647 94.2581C104.007 93.7919 104.367 94.6311 104.547 95.0042C106.078 97.7084 108.78 95.7502 110.131 93.6054V94.0716C110.221 96.4029 112.472 96.9624 114.093 95.7502C114.633 95.3771 115.353 94.7244 115.804 94.0716C115.984 94.8176 116.344 95.5637 117.064 96.0299C118.145 96.7759 119.496 96.3097 120.486 95.6569C121.117 95.1907 121.837 94.5379 122.287 93.6986C122.467 94.4446 122.918 95.1907 123.458 95.6569C124.268 96.4029 125.079 96.5894 126.159 96.5894C126.97 96.5894 127.78 96.4962 128.591 96.1232C129.581 95.7502 130.482 95.0042 131.202 94.1649C131.472 94.7244 131.833 95.2839 132.193 95.6569C133.003 96.4029 133.814 96.5894 134.894 96.5894C135.705 96.5894 136.515 96.4962 137.326 96.1232C138.316 95.7502 139.217 95.0042 139.937 94.0716V94.1649C140.747 95.4704 142.008 96.4029 143.449 96.4029C144.349 96.4029 145.43 96.4962 146.33 96.2164C147.681 95.8434 148.762 94.9109 149.752 93.8851C149.662 94.2581 149.662 94.5379 149.662 94.9109C149.662 95.3772 149.482 96.1232 149.842 96.3097C150.113 96.4029 151.643 96.4029 151.914 96.3097C152.274 96.1232 152.544 94.8176 152.634 94.4446C152.904 93.7919 153.084 93.1391 153.354 92.4864C153.895 91.2741 154.525 90.0618 155.245 88.9428C155.786 89.8753 156.236 91.0876 157.136 91.6471C157.857 92.1133 158.487 91.9268 159.117 91.5538C158.937 93.2324 159.027 95.0041 160.468 95.9367C161.549 96.6827 162.9 96.2164 163.89 95.5637C164.52 95.0974 165.331 94.3514 165.691 93.6054L165.961 94.1649C166.772 95.4704 168.032 96.4029 169.473 96.4029C170.374 96.4029 171.454 96.4962 172.355 96.2164C174.066 95.6569 175.416 94.4446 176.587 93.1391V92.1133C174.876 93.5121 173.255 95.2839 170.914 95.3772C170.464 95.0974 168.843 94.8176 168.753 93.7919ZM168.933 90.3416C169.023 89.5956 169.383 89.0361 169.743 88.3833C170.194 87.544 170.644 86.7048 171.634 86.5183C172.535 86.425 172.895 86.8913 172.895 87.7305C172.895 89.9686 170.644 91.0876 168.933 91.8336C168.933 91.2741 168.843 90.8078 168.933 90.3416ZM142.819 90.3416C142.909 89.5956 143.269 89.0361 143.629 88.3833C144.079 87.544 144.529 86.7048 145.52 86.5183C146.421 86.425 146.781 86.8913 146.781 87.7305C146.781 89.9686 144.529 91.0876 142.819 91.8336V90.3416ZM102.656 93.8851C102.296 94.3514 101.576 94.9109 100.946 94.8176C100.135 94.7244 99.5948 93.7919 99.7749 93.0459C100.135 91.1808 100.675 89.0361 101.846 87.544C102.837 86.3318 104.908 86.3318 104.908 88.29C104.728 90.2483 103.917 92.4864 102.656 93.8851ZM126.88 92.4864C126.88 93.3256 125.979 94.5379 125.079 94.6311C124.809 94.6311 124.358 94.4446 124.268 94.1649C124.178 93.7919 124.268 93.6986 124.448 93.4189C124.719 92.9526 124.989 92.4864 124.899 91.9268C124.899 91.7403 124.809 91.5538 124.629 91.3673C124.538 91.2741 124.178 91.0876 124.178 90.9943C124.178 90.7146 124.809 89.7821 124.989 89.5023C125.259 89.1293 125.529 88.8495 125.889 88.5698C126.249 89.3158 126.7 90.1551 126.79 90.9943C126.88 91.4606 126.88 91.9268 126.88 92.4864ZM135.525 92.4864C135.525 93.3256 134.624 94.5379 133.724 94.6311C133.453 94.6311 133.003 94.4446 132.913 94.1649C132.823 93.7919 132.913 93.6986 133.093 93.4189C133.363 92.9526 133.633 92.4864 133.543 91.9268C133.543 91.7403 133.453 91.5538 133.273 91.3673C133.183 91.2741 132.823 91.0876 132.823 90.9943C132.823 90.7146 133.453 89.7821 133.633 89.5023C133.904 89.1293 134.174 88.8495 134.534 88.5698C134.894 89.3158 135.344 90.1551 135.434 90.9943C135.525 91.4606 135.525 91.9268 135.525 92.4864Z" fill="#111827"/>
<path d="M100.855 84.3735C102.026 83.7207 103.017 82.8815 104.007 82.0422C104.547 82.7882 105.088 83.441 105.718 84.0005C106.619 84.8397 108.059 83.6275 107.159 82.6949C106.348 81.9489 105.628 81.1097 105.088 80.0839C104.818 79.5244 104.097 79.4311 103.647 79.8042C102.476 80.7367 101.396 81.7624 100.045 82.5084C98.9644 83.1612 99.7749 84.933 100.855 84.3735Z" fill="#111827"/>
</svg>
